<svg width="1440" height="1119" viewBox="0 0 1440 1119" fill="none" xmlns="http://www.w3.org/2000/svg">
<mask id="mask0_4003_71403" style="mask-type:luminance" maskUnits="userSpaceOnUse" x="-373" y="7" width="2541" height="982">
<path d="M-241.217 987.43C-113.996 948.566 30.9975 890.936 196.258 808.373C696.09 558.666 1002.99 440.662 1187.3 425.859C1365.3 411.56 1428.88 493.341 1441.3 645.586L1438.78 646.31C1426.43 494.521 1363.28 412.962 1186.53 427.16C1002.95 441.906 696.683 559.733 197.515 809.11C31.9171 891.839 -113.385 949.601 -240.896 988.565L-241.222 987.433L-241.217 987.43ZM-244.417 976.296C-107.646 937.666 50.6773 876.742 233.887 785.214C733.719 535.507 1040.61 417.501 1224.93 402.7C1407.58 388.029 1469.76 474.524 1479.8 634.518L1477.28 635.244C1467.29 475.706 1405.55 389.431 1224.16 403.999C1040.58 418.745 734.311 536.572 235.143 785.949C51.6115 877.639 -107.03 938.701 -244.095 977.434L-244.422 976.297L-244.417 976.296ZM-247.879 964.25C-101.998 926.607 69.6659 862.899 271.511 762.059C771.348 512.351 1078.24 394.346 1262.55 379.544C1447.16 364.716 1508.71 453.215 1517.74 616.5L1518.14 623.502L1515.62 624.228L1515.21 617.111C1506.21 454.356 1445.08 366.121 1261.79 380.845C1078.21 395.591 771.941 513.418 272.772 762.795C70.6052 863.794 -101.371 927.64 -247.554 965.397L-247.883 964.254L-247.879 964.25ZM-251.623 951.222C-97.104 915.35 87.8705 849.447 309.14 738.903C808.972 489.196 1115.87 371.19 1300.18 356.389C1484.78 341.562 1546.33 430.06 1555.37 593.345C1555.73 599.873 1556.11 606.24 1556.5 612.478L1553.98 613.202C1553.58 606.929 1553.2 600.522 1552.84 593.957C1543.83 431.201 1482.7 342.967 1299.41 357.688C1115.83 372.434 809.564 490.261 310.396 739.638C88.818 850.333 -96.4714 916.385 -251.296 952.377L-251.628 951.223L-251.623 951.222ZM-255.659 937.177C-93.0417 903.899 105.252 836.403 346.769 715.747C846.606 466.038 1153.5 348.034 1337.81 333.231C1522.42 318.404 1583.97 406.902 1593 570.187C1593.6 581.006 1594.25 591.403 1594.96 601.428L1592.44 602.152C1591.72 592.09 1591.07 581.658 1590.47 570.799C1581.46 408.043 1520.34 319.809 1337.05 334.532C1153.46 349.278 847.199 467.105 348.031 716.482C106.22 837.285 -92.3906 904.94 -255.322 938.351L-255.659 937.179L-255.659 937.177ZM-260.018 922.011C-89.8929 892.198 121.696 823.83 384.398 692.588C884.23 442.881 1191.13 324.875 1375.44 310.074C1560.04 295.247 1621.59 383.745 1630.62 547.03C1631.47 562.263 1632.4 576.695 1633.5 590.349L1630.99 591.073C1629.87 577.382 1628.95 562.91 1628.1 547.638C1619.09 384.883 1557.96 296.648 1374.68 311.371C1191.09 326.117 884.827 443.944 385.659 693.321C122.693 824.694 -89.2202 893.238 -259.674 923.205L-260.018 922.011ZM-264.728 905.619C-87.7477 880.181 137.077 811.786 422.026 669.43C921.859 419.722 1228.75 301.716 1413.07 286.914C1597.68 272.087 1659.23 360.585 1668.26 523.87C1669.35 543.662 1670.59 562.1 1672.19 579.233L1669.67 579.955C1668.07 562.784 1666.83 544.309 1665.73 524.48C1656.73 361.725 1595.6 273.49 1412.31 288.211C1228.73 302.957 922.461 420.784 423.292 670.161C138.098 812.639 -87.0509 881.228 -264.378 906.838L-264.728 905.619ZM-269.827 887.878C-86.7202 867.777 151.251 800.345 459.655 646.273C959.493 396.564 1266.38 278.56 1450.7 263.758C1635.31 248.93 1696.86 337.429 1705.89 500.714C1707.24 525.211 1708.81 547.651 1711.01 568.074L1708.49 568.798C1706.29 548.334 1704.72 525.855 1703.36 501.321C1694.36 338.566 1633.23 250.332 1449.94 265.055C1266.35 279.801 960.09 397.628 460.922 647.005C152.305 801.181 -85.9921 868.837 -269.467 889.13L-269.827 887.878ZM-275.348 868.668C-86.9456 854.917 164.055 789.592 497.279 623.116C997.111 373.409 1304.01 255.403 1488.32 240.602C1672.92 225.775 1734.47 314.273 1743.51 477.558C1745.13 506.93 1747.07 533.34 1750.03 556.861L1747.51 557.586C1744.54 534.023 1742.61 507.572 1740.98 478.17C1731.97 315.414 1670.84 227.18 1487.55 241.903C1303.97 256.649 997.704 374.476 498.536 623.853C165.147 790.407 -86.1782 855.98 -274.978 869.954L-275.348 868.668ZM-281.331 847.847C-88.5863 841.495 175.286 779.622 534.908 599.96C1034.75 350.251 1341.64 232.247 1525.95 217.446C1710.55 202.618 1772.1 291.117 1781.14 454.402C1783.04 488.817 1785.36 519.199 1789.27 545.585L1786.75 546.309C1782.84 519.877 1780.52 489.456 1778.61 455.012C1769.6 292.257 1708.48 204.022 1525.19 218.745C1341.6 233.491 1035.34 351.318 536.17 600.695C176.43 780.411 -87.7719 842.569 -280.95 849.174L-281.331 847.847ZM-287.844 825.185C-91.851 827.342 184.645 770.586 572.537 576.801C1072.37 327.094 1379.26 209.088 1563.58 194.287C1748.18 179.46 1809.73 267.958 1818.76 431.243C1820.96 470.915 1823.71 505.21 1828.81 534.22L1826.29 534.944C1821.2 505.881 1818.43 471.548 1816.23 431.855C1807.23 269.099 1746.1 180.865 1562.81 195.588C1379.23 210.334 1072.96 328.161 573.793 577.538C185.873 771.338 -90.9818 828.452 -287.445 826.592L-287.848 825.189L-287.844 825.185ZM-294.939 800.496C-96.9977 812.284 191.821 762.641 610.166 553.645C1110 303.936 1416.89 185.932 1601.21 171.13C1785.82 156.302 1847.37 244.801 1856.4 408.085C1858.9 453.231 1862.12 491.411 1868.7 522.759L1866.18 523.484C1859.6 492.078 1856.37 453.854 1853.87 408.695C1844.87 245.94 1783.74 157.705 1600.45 172.429C1416.87 187.175 1110.6 305.002 611.433 554.379C193.127 763.357 -96.0409 813.413 -294.515 801.953L-294.934 800.497L-294.939 800.496ZM-302.723 773.413C-104.38 795.994 196.257 756.067 647.794 530.486C1147.63 280.779 1454.52 162.773 1638.84 147.971C1823.44 133.143 1884.99 221.642 1894.03 384.927C1896.84 435.784 1900.57 477.816 1909 511.176L1906.46 511.904C1898.05 478.475 1894.32 436.401 1891.5 385.537C1882.49 222.782 1821.37 134.547 1638.08 149.27C1454.49 164.016 1148.23 281.843 649.061 531.22C197.677 756.721 -103.331 797.173 -302.276 774.966L-302.723 773.413ZM-311.289 743.604C-114.449 778.084 197.316 751.178 685.423 507.328C1185.26 257.62 1492.15 139.614 1676.46 124.814C1861.07 109.984 1922.62 198.485 1931.65 361.77C1934.8 418.62 1939.08 464.448 1949.8 499.449L1947.25 500.182C1936.55 465.099 1932.27 419.222 1929.13 362.38C1920.12 199.624 1858.99 111.39 1675.7 126.113C1492.12 140.857 1185.85 258.686 686.685 508.063C198.937 751.731 -113.27 779.354 -310.802 745.301L-311.289 743.604ZM-320.784 710.565C-127.868 757.914 194.008 748.472 723.047 484.173C1222.88 234.464 1529.77 116.46 1714.09 101.657C1898.7 86.8298 1960.25 175.329 1969.28 338.613C1972.77 401.769 1977.68 451.327 1991.24 487.54L1988.67 488.279C1975.14 451.966 1970.24 402.359 1966.75 339.225C1957.74 176.47 1896.61 88.2349 1713.33 102.958C1529.74 117.704 1223.48 235.531 724.309 484.908C195.827 748.926 -126.522 759.287 -320.258 712.396L-320.784 710.568L-320.784 710.565ZM-331.391 673.657C-145.585 734.444 184.842 748.691 760.676 461.014C1260.51 211.307 1567.4 93.3011 1751.71 78.5004C1936.32 63.6728 1997.87 152.171 2006.9 315.456C2010.77 385.281 2016.35 438.484 2033.47 475.405L2030.88 476.148C2013.82 439.107 2008.24 385.852 2004.38 316.066C1995.37 153.311 1934.24 65.0764 1750.95 79.7998C1567.37 94.5457 1261.11 212.373 761.937 461.75C186.994 748.982 -144.004 736.003 -330.81 675.681L-331.391 673.657ZM-343.386 631.92C-169.166 705.765 167.155 753.169 798.305 437.858C1298.14 188.149 1605.03 70.1469 1789.34 55.3441C1973.95 40.5142 2035.5 129.015 2044.53 292.3C2048.79 369.211 2055.13 425.965 2076.67 462.988L2074.06 463.74C2052.6 426.564 2046.26 369.759 2042.01 292.91C2033 130.155 1971.87 41.9199 1788.58 56.6412C1605 71.3871 1298.73 189.214 799.566 438.591C169.855 753.186 -167.226 707.656 -342.724 634.222L-343.386 631.92ZM-357.123 584.12C-201.354 667.977 135.997 764.377 835.933 414.699C1335.77 164.992 1642.66 46.9861 1826.97 32.1855C2011.58 17.3579 2073.13 105.856 2082.16 269.141C2086.84 353.634 2094.02 413.814 2121.13 450.213L2118.43 450.987C2091.47 414.397 2084.3 354.145 2079.64 269.751C2070.63 106.996 2009.5 18.7614 1826.21 33.4848C1642.63 48.2307 1336.36 166.058 837.195 415.435C139.635 763.924 -198.847 670.519 -356.359 586.78L-357.123 584.12ZM2164.47 437.755C2130.53 402.641 2122.39 339.146 2117.26 246.594C2108.25 83.8389 2047.12 -4.39579 1863.84 10.3277C1680.25 25.0736 1373.99 142.901 874.819 392.278C148.638 755.065 -188.434 638.951 -337.256 553.394C-350.274 545.91 -361.843 538.665 -372.103 531.996L-372.995 528.892C-361.971 536.113 -349.384 544.07 -335.066 552.304C-186.7 637.598 149.364 753.342 873.557 391.544C1373.39 141.836 1680.28 23.8313 1864.6 9.02913C2049.21 -5.79846 2110.76 82.7 2119.79 245.985C2124.92 338.67 2133.06 402.096 2167.22 436.967L2164.48 437.754L2164.47 437.755Z" fill="white"/>
</mask>
<g mask="url(#mask0_4003_71403)">
<path d="M1747.99 -208.751L-194.748 349.567L13.8163 1075.29L1956.56 516.975L1747.99 -208.751Z" fill="url(#paint0_linear_4003_71403)"/>
</g>
<g filter="url(#filter0_f_4003_71403)">
<ellipse cx="1502.1" cy="414.017" rx="315" ry="110.99" transform="rotate(117.049 1502.1 414.017)" fill="#FF4D00" fill-opacity="0.3"/>
</g>
<defs>
<filter id="filter0_f_4003_71403" x="968.038" y="-231.08" width="1068.12" height="1290.19" filterUnits="userSpaceOnUse" color-interpolation-filters="sRGB">
<feFlood flood-opacity="0" result="BackgroundImageFix"/>
<feBlend mode="normal" in="SourceGraphic" in2="BackgroundImageFix" result="shape"/>
<feGaussianBlur stdDeviation="180" result="effect1_foregroundBlur_4003_71403"/>
</filter>
<linearGradient id="paint0_linear_4003_71403" x1="-43.8824" y1="625.932" x2="1355.14" y2="47.3" gradientUnits="userSpaceOnUse">
<stop stop-color="#FB7B4A"/>
<stop offset="0.161236" stop-color="#FFF5F3"/>
<stop offset="0.255417" stop-color="#FFF5F3"/>
<stop offset="0.665442" stop-color="#DE4F3F"/>
<stop offset="0.874412" stop-color="#DE4F3F"/>
<stop offset="1" stop-color="white" stop-opacity="0"/>
</linearGradient>
</defs>
</svg>
