<svg width="1200" height="300" viewBox="0 0 1200 300" fill="none" xmlns="http://www.w3.org/2000/svg">
<g clip-path="url(#clip0_4087_8266)">
<rect y="0.411621" width="1200" height="302" rx="8" fill="url(#paint0_linear_4087_8266)"/>
<path d="M-52.6341 -323.28C-52.6341 -317.972 -52.6741 -312.802 -52.7105 -307.728C-52.7469 -302.841 -52.7796 -298.05 -52.7796 -293.32C-52.7796 -265.78 -51.4511 -243.859 -44.8372 -219.684C-41.3792 -207.041 -35.9447 -195.201 -30.6922 -183.754C-21.9198 -164.628 -13.6315 -146.572 -13.6315 -124.954C-13.6315 -121.375 -13.8681 -117.744 -14.334 -114.157C-16.4124 -98.2137 -24.8827 -86.2775 -33.0727 -74.7291C-42.2819 -61.7549 -50.9742 -49.4956 -50.9742 -32.2963C-50.9742 -30.7371 -50.9014 -29.1335 -50.7522 -27.542C-49.7767 -16.9348 -41.1717 0.0504346 -32.8544 16.4783C-27.5036 27.0411 -22.4512 37.0182 -20.0998 44.091C-16.6854 54.3872 -15.0293 62.0983 -13.8208 67.7291C-10.1808 84.7063 -8.83394 86.8471 19.336 95.0994C27.1256 97.3816 34.4056 99.0336 41.4454 100.633C67.5696 106.575 88.2048 111.265 107.919 142.173C121.19 163.028 127.641 189.494 127.641 223.077C127.644 256.352 121.365 291.135 115.825 321.83C112.928 337.878 110.194 353.037 109.113 364.299C108.483 370.842 108.105 380.925 108.105 391.273C108.105 420.918 117.889 455.652 131.925 458.079C138.571 459.23 148.552 453.47 158.344 419.48L159.436 415.687C196.881 286.146 245.74 195.799 328.088 103.844C350.805 78.4816 361.387 59.1091 361.387 42.8832C361.387 39.0702 360.782 35.3459 359.596 31.8035C353.794 14.5556 334.178 1.98123 311.464 -12.5845C299.736 -20.1057 286.446 -28.6286 273.652 -38.7026C211.692 -87.4853 166.421 -157.494 146.172 -235.833C140.199 -258.946 137.17 -281.509 137.17 -302.893C137.17 -372.656 167.95 -421.887 199.625 -468.501L197.35 -468.501C165.788 -421.98 135.35 -372.709 135.35 -302.893C135.35 -281.319 138.404 -258.57 144.425 -235.275C164.783 -156.501 210.305 -86.0998 272.6 -37.0545C285.46 -26.928 298.793 -18.3768 310.554 -10.8354C332.962 3.53235 352.316 15.9452 357.889 32.5103C359.002 35.8266 359.567 39.3165 359.567 42.8832C359.567 58.5436 349.153 77.4637 326.799 102.427C244.23 194.62 195.243 285.201 157.703 415.073L156.611 418.87C149.277 444.321 140.61 457.538 132.205 456.084C120.546 454.064 109.925 423.172 109.925 391.273C109.925 380.993 110.296 370.988 110.922 364.513C111.992 353.344 114.722 338.229 117.609 322.225C123.163 291.442 129.464 256.55 129.461 223.077C129.461 189.058 122.901 162.216 109.408 141.006C89.2749 109.447 68.3268 104.685 41.8094 98.658C34.7951 97.0625 27.5406 95.4104 19.802 93.1443C-8.26244 84.9284 -8.61919 83.2561 -12.0517 67.2645C-13.2674 61.5812 -14.9383 53.8056 -18.3926 43.4003C-20.7914 36.1699 -25.8801 26.1242 -31.2673 15.4846C-39.1115 -0.00608409 -48.004 -17.5569 -48.9431 -27.7481C-49.0851 -29.2749 -49.1543 -30.8058 -49.1543 -32.2963C-49.1543 -48.7969 -40.6512 -60.7855 -31.6422 -73.4811C-23.303 -85.2354 -14.6798 -97.3897 -12.5322 -113.866C-12.0517 -117.55 -11.8115 -121.282 -11.8115 -124.954C-11.8115 -147.057 -20.5839 -166.175 -29.0687 -184.667C-34.2884 -196.042 -39.6866 -207.8 -43.0973 -220.269C-49.6456 -244.206 -50.9596 -265.966 -50.9596 -293.32C-50.9596 -298.042 -50.927 -302.829 -50.8906 -307.712C-50.8542 -312.79 -50.8141 -317.968 -50.8141 -323.28C-50.8141 -347.952 -48.2188 -370.031 -42.8826 -390.785C-36.134 -417.004 -26.7027 -442.722 -15.7172 -468.501L-17.7301 -468.501C-28.5956 -442.924 -37.9248 -417.387 -44.6297 -391.334C-50.0169 -370.406 -52.6341 -348.142 -52.6341 -323.28Z" fill="white" fill-opacity="0.12"/>
<path d="M-15.8688 -323.279C-15.8688 -289.308 -10.3178 -253.177 -4.43193 -214.868C2.19649 -171.761 9.04698 -127.191 9.04699 -79.7089C9.04699 -76.2836 9.01421 -72.8946 8.94143 -69.6349C8.59197 -53.1546 6.14229 -39.1745 3.97649 -26.8425C2.10555 -16.1788 0.493002 -6.97724 0.493003 1.86076C0.493004 22.853 10.452 38.2832 34.8655 55.1271C46.6372 63.2501 60.7022 69.1717 74.3013 74.9035C98.3653 85.0422 123.248 95.5282 137.99 118.694C143.064 126.671 146.992 141.932 151.149 158.093C158.411 186.324 166.641 218.327 183.825 222.673C205.363 228.094 234.832 178.996 250.666 152.616C253.615 147.708 256.159 143.467 257.997 140.688C278.443 109.755 292.061 84.1737 292.061 59.8611C292.061 56.5287 291.798 53.2164 291.278 50.0052C288.14 30.6165 275.782 12.9971 252.381 -5.42618C183.643 -59.5488 133.375 -137.378 110.836 -224.583C103.916 -251.359 100.407 -277.708 100.407 -302.893C100.407 -372.583 125.771 -424.148 154.024 -468.5L152.685 -468.5C124.511 -424.157 99.3153 -372.575 99.3153 -302.893C99.3153 -277.59 102.839 -251.129 109.788 -224.251C132.392 -136.78 182.81 -58.7166 251.751 -4.4405C274.902 13.7889 287.117 31.1578 290.204 50.2193C290.71 53.3578 290.969 56.6014 290.969 59.8611C290.969 83.8425 277.435 109.23 257.117 139.969C255.264 142.768 252.712 147.021 249.756 151.945C234.072 178.079 204.872 226.729 184.065 221.49C167.514 217.305 159.379 185.669 152.197 157.758C148.015 141.499 144.065 126.138 138.882 117.991C123.947 94.5264 98.9076 83.9758 74.6907 73.7725C61.139 68.0609 47.125 62.1555 35.4443 54.1011C11.3948 37.5076 1.58498 22.3723 1.58498 1.86076C1.58498 -6.86009 3.19024 -16.0091 5.05028 -26.6082C7.22335 -38.9887 9.68035 -53.0253 10.0334 -69.6026C10.1026 -72.8784 10.139 -76.2755 10.139 -79.7089C10.139 -127.292 3.27754 -171.918 -3.36543 -215.131C-9.23677 -253.33 -14.7804 -289.409 -14.7804 -323.279C-14.7804 -344.186 -12.6365 -362.674 -8.22845 -379.801C-0.67544 -409.147 10.8524 -438.536 24.364 -468.5L23.141 -468.5C9.70945 -438.666 -1.74929 -409.389 -9.27682 -380.132C-13.714 -362.896 -15.8688 -344.299 -15.8688 -323.279Z" fill="white" fill-opacity="0.12"/>
<path d="M1240 554.894C1232.71 559.111 1225.82 563.098 1220.23 560.218C1211.86 555.9 1210.6 547.785 1209.37 539.94C1208.38 533.655 1207.36 527.156 1202.53 523.286C1194.68 517.005 1185.28 513.976 1176.2 511.043C1163.66 507 1151.81 503.179 1145.06 491.38C1135.91 475.364 1134.39 461.61 1132.91 448.309C1130.89 430.067 1128.98 412.84 1107.41 393.269C1079.52 367.971 1035.53 349.374 989.729 343.521C897.248 331.71 828.226 392.304 767.332 445.764C714.076 492.519 668.084 532.896 618.089 516.064C564.847 498.142 536.99 448.576 536.99 408.877C536.99 388.152 543.953 370.266 557.137 357.154C575.981 338.408 606.139 330.947 644.344 335.588C744.804 347.803 868.856 343.638 937 201.855C959.069 155.928 969.8 108.503 969.796 56.8601C969.796 -9.32792 951.975 -70.6971 936.247 -124.844C923.561 -168.517 912.605 -206.236 912.605 -239.092C912.605 -282.264 931.922 -310.337 975.227 -330.126C1083.15 -379.437 1173 -331.996 1216.96 -299.326C1287.77 -246.71 1330.08 -168.101 1330.08 -122.505C1330.08 -108.557 1326.44 -97.7484 1319.26 -90.3847C1250.77 -20.1291 1216.05 69.7736 1216.05 176.831C1216.05 209.485 1219.28 244.344 1225.65 280.439C1228.43 296.16 1230.84 313.218 1233.38 331.282C1239.87 377.237 1247.21 429.32 1262.72 467.273C1266.09 475.526 1277.2 488.157 1290.06 502.791C1308.94 524.272 1330.34 548.621 1330.34 563.28C1330.34 564.58 1330.16 565.792 1329.81 566.879C1327.71 573.358 1324.61 577.272 1320.32 578.851C1309.35 582.882 1292.54 570.518 1279.03 560.585C1270.93 554.627 1263.93 549.481 1259.26 548.508C1253.22 547.252 1246.5 551.137 1240 554.894ZM1277.87 562.528C1291.76 572.74 1309.04 585.451 1320.98 581.061C1325.85 579.271 1329.49 574.763 1331.79 567.666C1332.22 566.325 1332.44 564.847 1332.44 563.28C1332.44 547.672 1310.72 522.963 1291.56 501.163C1279.37 487.292 1267.85 474.189 1264.63 466.312C1249.24 428.65 1241.92 376.728 1235.46 330.919C1232.9 312.839 1230.5 295.757 1227.72 279.991C1221.36 244.041 1218.15 209.336 1218.15 176.831C1218.15 70.4482 1252.65 -18.8769 1320.68 -88.672C1328.31 -96.4962 1332.18 -107.879 1332.18 -122.505C1332.18 -168.073 1292.21 -246.213 1218.13 -301.265C1173.83 -334.189 1083.25 -382.002 974.434 -332.278C930.819 -312.352 910.508 -282.744 910.508 -239.092C910.508 -205.868 921.512 -167.988 934.252 -124.125C949.929 -70.1477 967.7 -8.96037 967.7 56.8601C967.7 108.107 957.049 155.177 935.147 200.756C867.596 341.308 744.379 345.408 644.573 333.278C605.76 328.56 575.039 336.218 555.732 355.425C542.097 368.985 534.889 387.469 534.889 408.877C534.889 449.436 563.26 500.04 617.481 518.294C668.525 535.477 714.916 494.749 768.636 447.59C829.209 394.412 897.87 334.138 989.485 345.836C1034.9 351.636 1078.49 370.043 1106.08 395.075C1127 414.052 1128.86 430.831 1130.83 448.592C1132.33 462.152 1133.88 476.172 1143.29 492.624C1150.46 505.17 1162.68 509.109 1175.61 513.281C1184.53 516.157 1193.75 519.13 1201.3 525.177C1205.44 528.489 1206.35 534.245 1207.29 540.336C1208.56 548.383 1209.99 557.495 1219.35 562.326C1225.87 565.691 1233.55 561.256 1240.97 556.962C1247.15 553.383 1253.55 549.687 1258.87 550.794C1263.12 551.683 1269.96 556.708 1277.87 562.528Z" fill="white" fill-opacity="0.12"/>
<path d="M1195.63 -390.165C1217.56 -379.493 1238.27 -369.411 1256.19 -356.631C1360.53 -282.166 1378.11 -199.166 1396.73 -111.295C1398.15 -104.606 1399.49 -97.5779 1400.8 -90.7758C1406.42 -61.507 1412.23 -31.2405 1426.65 -6.57245C1431.16 1.14666 1435.62 7.03996 1440 11.156L1440 8.51024C1436.14 4.60424 1432.2 -0.788155 1428.18 -7.66709C1413.94 -32.0281 1408.16 -62.1088 1402.58 -91.1999C1401.27 -98.0061 1399.92 -105.047 1398.5 -111.764C1379.8 -200.039 1362.13 -283.422 1257.17 -358.327C1239.13 -371.196 1218.36 -381.307 1196.32 -392.035C1161.38 -409.049 1121.79 -428.332 1108.56 -454.984C1106.94 -459.718 1105.53 -464.201 1104.29 -468.499L1102.38 -468.499C1103.69 -463.951 1105.19 -459.181 1106.91 -454.14C1120.49 -426.753 1160.39 -407.324 1195.63 -390.165Z" fill="white" fill-opacity="0.12"/>
<path d="M1400.51 29.769C1381.38 -17.8544 1372.25 -60.9335 1363.42 -102.591C1345.7 -186.269 1330.39 -258.536 1237.68 -324.688C1222.06 -335.837 1202.55 -345.341 1181.89 -355.395C1138.73 -376.407 1094.1 -398.139 1075.67 -438.471C1071.88 -449.337 1068.94 -459.253 1066.75 -468.499L1064.13 -468.499C1066.39 -458.886 1069.43 -448.557 1073.41 -437.175C1092.24 -395.958 1137.29 -374.02 1180.86 -352.806C1201.43 -342.796 1220.85 -333.336 1236.3 -322.317C1328.15 -256.775 1343.34 -185.021 1360.94 -101.945C1369.8 -60.158 1378.95 -16.9496 1398.18 30.9202C1410.69 62.0632 1425.18 82.8697 1440 91.4937L1440 88.3389C1426.14 79.6585 1412.47 59.5508 1400.51 29.769Z" fill="white" fill-opacity="0.12"/>
<path d="M1056.45 228.458C1052.59 220.735 1050.72 212.822 1050.72 204.267C1050.72 188.57 1057.2 172.987 1063.48 157.92L1064.97 154.345C1068.55 145.689 1070.29 136.948 1070.29 127.625C1070.29 116.271 1067.75 105.199 1065.06 93.481C1064.39 90.5323 1063.7 87.527 1063.04 84.4612C1061.62 77.869 1060.92 71.5153 1060.92 65.0322C1060.92 45.4092 1067.66 27.5111 1074.94 11.0954C1078.63 2.7542 1080.43 -5.34866 1080.43 -13.6656C1080.43 -25.8764 1076.62 -36.8027 1072.58 -48.3712C1069.59 -56.9346 1066.49 -65.7928 1064.88 -75.5558C1063.4 -84.4301 1062.47 -93.2197 1061.57 -101.718C1059.24 -123.672 1057.03 -144.41 1046.28 -165.475C1044.99 -167.995 1043.71 -170.386 1042.46 -172.701C1037.1 -182.662 1032.46 -191.266 1032.46 -202.511C1032.46 -205.997 1032.89 -209.568 1033.77 -213.429C1036.21 -224.154 1042.45 -231.537 1052.31 -235.383C1087.22 -248.987 1157.64 -215.918 1179.29 -197.741C1194.95 -184.581 1203.74 -167.648 1204.04 -150.049L1204.04 -149.144C1204.04 -131.621 1195.42 -114.733 1179.77 -101.597C1171.88 -94.9808 1162.34 -89.9155 1152.23 -84.5513C1131.06 -73.314 1109.17 -61.6929 1103.45 -34.8073C1102.74 -31.4628 1102.39 -28.4575 1102.39 -25.626C1102.39 -15.7782 1106.6 -10.1069 1111.46 -3.53903C1114.39 0.40334 1117.41 4.47898 1119.93 9.97648C1123.07 16.8069 1124.6 23.5203 1124.6 30.5042C1124.6 45.1911 1117.9 58.3309 1110.81 72.2382C1103.77 86.0607 1096.49 100.356 1096.49 116.246L1096.5 117.252C1096.64 125.036 1098.1 131.604 1099.51 137.962C1100.82 143.851 1102.05 149.417 1102.05 155.303C1102.05 161.16 1100.85 166.596 1098.25 172.425C1097.16 174.877 1095.99 177.191 1094.86 179.425C1091.68 185.71 1088.67 191.648 1088.67 198.584C1088.67 202.243 1089.49 205.927 1091.18 209.841C1092.51 212.935 1095.67 216.462 1099.01 220.198C1104.33 226.144 1110.37 232.889 1110.37 239.235C1110.37 240.746 1110.04 242.156 1109.35 243.533C1106.89 248.505 1102.4 251.03 1096 251.042C1080.96 251.066 1060.71 236.981 1056.45 228.458ZM1110.95 244.51C1111.77 242.842 1112.19 241.069 1112.19 239.235C1112.19 232.057 1105.87 224.997 1100.3 218.776C1097.07 215.165 1094.02 211.752 1092.82 208.973C1091.25 205.329 1090.49 201.936 1090.49 198.584C1090.49 192.173 1093.25 186.728 1096.44 180.415C1097.59 178.157 1098.77 175.822 1099.89 173.318C1102.57 167.287 1103.87 161.394 1103.87 155.303C1103.87 149.171 1102.62 143.492 1101.28 137.481C1099.89 131.232 1098.46 124.769 1098.32 117.212L1098.31 116.246C1098.31 100.889 1105.47 86.8282 1112.39 73.2319C1119.29 59.7083 1126.42 45.7243 1126.42 30.5042C1126.42 23.1931 1124.83 16.1768 1121.56 9.06359C1118.94 3.36412 1115.71 -0.986247 1112.87 -4.8236C1108.22 -11.0886 1104.21 -16.5012 1104.21 -25.626C1104.21 -28.296 1104.54 -31.1517 1105.22 -34.3427C1110.74 -60.2872 1132.23 -71.6982 1153.02 -82.7296C1162.76 -87.8999 1172.83 -93.252 1180.86 -99.9895C1196.98 -113.513 1205.86 -130.971 1205.86 -149.144L1205.86 -150.089C1205.55 -168.318 1196.5 -185.813 1180.38 -199.348C1158.5 -217.727 1087.19 -251.116 1051.71 -237.29C1041.23 -233.202 1034.6 -225.345 1032.01 -213.93C1031.09 -209.899 1030.64 -206.167 1030.64 -202.511C1030.64 -190.704 1035.4 -181.882 1040.9 -171.667C1042.14 -169.365 1043.42 -166.985 1044.7 -164.481C1055.27 -143.764 1057.45 -123.224 1059.76 -101.484C1060.67 -92.949 1061.61 -84.1312 1063.08 -75.1923C1064.73 -65.2394 1067.86 -56.2924 1070.88 -47.6443C1074.85 -36.2534 1078.61 -25.4967 1078.61 -13.6656C1078.61 -5.66372 1076.87 2.14832 1073.3 10.2067C1065.93 26.8406 1059.1 44.9932 1059.1 65.0322C1059.1 71.6768 1059.81 78.1842 1061.27 84.9338C1061.93 88.0077 1062.62 91.021 1063.3 93.9778C1065.96 105.571 1068.47 116.521 1068.47 127.625C1068.47 136.649 1066.78 145.115 1063.31 153.501L1061.82 157.076C1055.47 172.336 1048.9 188.126 1048.9 204.267C1048.9 213.174 1050.85 221.406 1054.86 229.436C1059.91 239.554 1081.19 253.086 1096.01 253.062C1103.01 253.05 1108.18 250.089 1110.95 244.51Z" fill="white" fill-opacity="0.12"/>
<path d="M1219.12 487.733C1209.84 471.156 1197.13 448.455 1178.94 425.803C1151.35 391.464 1116.61 363.23 1075.69 341.882C1049.95 328.451 1021.98 319.739 992.573 315.982C889.837 302.87 813.321 370.048 751.827 424.037C704.074 465.957 662.832 502.166 625.34 489.543C583.735 475.539 561.968 438.361 561.968 408.878C561.968 396.069 565.95 385.611 573.809 377.795C587.029 364.643 611.115 359.437 641.626 363.145C741.467 375.283 882.998 373.114 959.037 214.894C983.087 164.855 994.775 113.16 994.775 56.8606C994.775 -13.6979 976.309 -77.2644 960.005 -133.403C947.972 -174.83 937.587 -210.602 937.587 -239.091C937.587 -261.873 943.298 -285.559 984.739 -304.496C1081.93 -348.908 1163.24 -305.889 1203.07 -276.297C1253.15 -239.079 1293.89 -176.381 1293.89 -136.525C1293.89 -125.878 1291.07 -117.209 1285.52 -110.763C1246.19 -65.1668 1221.18 -22.742 1206.83 22.7608C1194.48 61.9218 1189.21 105.106 1189.21 167.146C1189.21 234.069 1198.98 303.739 1216.71 363.323C1237.82 434.269 1239.47 479.711 1239.47 491.95C1239.47 497.726 1239.15 502.271 1238.57 504.755C1237.71 508.475 1236.64 510.47 1235.41 510.68C1232.26 511.214 1226.75 501.362 1219.12 487.733ZM1239.63 505.058C1240.23 502.477 1240.56 497.823 1240.56 491.95C1240.56 479.667 1238.91 434.059 1217.75 362.943C1200.05 303.472 1190.3 233.94 1190.3 167.146C1190.3 57.1999 1205.15 -15.8469 1286.3 -109.926C1292.06 -116.607 1294.98 -125.558 1294.98 -136.525C1294.98 -177.419 1254.88 -239.253 1203.67 -277.307C1163.67 -307.032 1081.98 -350.241 984.328 -305.618C942.29 -286.407 936.491 -262.293 936.491 -239.091C936.491 -210.412 946.905 -174.551 958.983 -132.975C975.246 -76.9737 993.683 -13.508 993.683 56.8606C993.683 112.959 982.035 164.464 958.073 214.329C882.343 371.898 741.271 374.039 641.746 361.937C610.919 358.193 586.534 363.508 573.081 376.895C564.982 384.949 560.876 395.71 560.876 408.878C560.876 438.809 582.909 476.528 625.024 490.702C663.065 503.507 704.51 467.121 752.515 424.974C813.841 371.135 890.161 304.131 992.445 317.19C1021.74 320.93 1049.59 329.606 1075.23 342.981C1116.02 364.26 1150.64 392.397 1178.12 426.61C1196.26 449.182 1208.94 471.834 1218.19 488.375C1226.62 503.438 1231.71 512.53 1235.58 511.876C1237.33 511.581 1238.62 509.412 1239.63 505.058Z" fill="white" fill-opacity="0.12"/>
<path d="M1117.21 294.154C1102.59 286.588 1082.57 276.231 1056.14 267.082C1041.5 262.017 1028.72 261.371 1019.38 260.902C1007.99 260.332 1001.72 260.013 1001.72 252.949C1001.72 249.152 1003.5 243.323 1007.33 234.602C1019.23 207.494 1043.81 128.837 1043.81 58.7308C1043.81 57.3453 1043.8 55.9599 1043.78 54.5825C1042.58 -28.5464 1022.34 -105.152 1007.55 -161.084C999.679 -190.862 993.462 -214.379 991.911 -231.255C990.994 -241.272 996.075 -249.415 1006.96 -255.418C1045.55 -276.713 1143.61 -263.662 1194.88 -220.611C1224.03 -196.125 1240.76 -169.962 1240.76 -148.829C1240.76 -139.575 1237.55 -131.419 1231.23 -124.581C1195.53 -85.9813 1155.46 -5.32843 1146.44 87.8502C1144.63 106.471 1143.71 128.364 1143.71 152.915C1143.71 215.864 1149.63 274.555 1149.88 277.019C1150.46 282.67 1150.74 287.198 1150.74 290.87C1150.74 298.169 1149.62 302.365 1147.2 304.074C1142.64 307.305 1133.07 302.353 1117.21 294.154ZM1151.83 290.87C1151.83 287.153 1151.55 282.577 1150.97 276.886C1150.72 274.422 1144.81 215.795 1144.81 152.915C1144.81 128.405 1145.72 106.556 1147.52 87.9794C1156.52 -4.8963 1196.43 -85.2663 1231.99 -123.716C1238.53 -130.789 1241.85 -139.235 1241.85 -148.829C1241.85 -170.342 1224.97 -196.86 1195.54 -221.573C1143.99 -264.862 1045.33 -277.949 1006.47 -256.504C996.163 -250.813 990.714 -242.86 990.714 -233.497C990.714 -232.713 990.75 -231.937 990.826 -231.126C992.388 -214.144 998.616 -190.579 1006.5 -160.745C1021.27 -104.873 1041.5 -28.3646 1042.69 54.5986C1043.74 125.488 1018.45 206.513 1006.35 234.077C1002.39 243.081 1000.63 248.901 1000.63 252.949C1000.63 261.177 1007.67 261.524 1019.34 262.114C1028.61 262.582 1041.31 263.221 1055.82 268.245C1082.17 277.362 1102.16 287.703 1116.75 295.248C1132.94 303.622 1142.72 308.679 1147.79 305.096C1150.59 303.113 1151.83 298.726 1151.83 290.87Z" fill="white" fill-opacity="0.12"/>
<path d="M1169.21 374.285C1131.84 331.828 1091.28 304.001 1048.66 291.588C1014.39 281.607 987.927 284.467 976.621 285.691C974.157 285.954 972.37 286.147 971.314 286.131C962.895 286.018 961.92 282.068 961.92 279.111C961.92 272.454 967.744 261.193 974.485 248.154C978.041 241.279 982.067 233.487 985.762 225.384C1009.62 173.055 1020.25 121.081 1020.25 56.8605C1020.25 -18.1534 1001.14 -83.9578 984.269 -142.027C972.89 -181.212 963.066 -215.049 963.066 -239.091C963.066 -250.777 963.066 -264.014 994.439 -278.353C1074.2 -314.792 1140.24 -279.072 1179.69 -257.729C1182.95 -255.967 1186.04 -254.295 1188.96 -252.76C1220.72 -236.046 1273.4 -179.815 1273.4 -149.471C1273.4 -144.769 1272.08 -140.908 1269.5 -137.992C1224.25 -86.9146 1194.62 -34.0602 1178.91 23.5968C1164.9 74.9929 1163.73 122.693 1163.73 167.146C1163.73 245.666 1172.35 311.393 1190.07 368.085C1191.59 372.968 1192.43 377.654 1192.43 381.269C1192.43 384.004 1191.96 387.473 1189.69 388.499C1187.56 389.461 1182.07 388.895 1169.21 374.285ZM1193.53 381.269C1193.53 377.517 1192.67 372.698 1191.1 367.693C1173.42 311.127 1164.82 245.532 1164.82 167.146C1164.82 69.5155 1172.89 -27.2217 1270.28 -137.139C1273.07 -140.294 1274.49 -144.442 1274.49 -149.471C1274.49 -149.471 1274.49 -149.471 1274.49 -149.475C1274.49 -180.218 1221.42 -237.015 1189.43 -253.855C1186.51 -255.39 1183.42 -257.058 1180.17 -258.819C1140.55 -280.252 1074.24 -316.121 994.024 -279.472C961.97 -264.826 961.97 -251.153 961.97 -239.091C961.97 -214.86 971.824 -180.937 983.232 -141.647C1000.07 -83.671 1019.16 -17.9595 1019.16 56.8605C1019.16 120.883 1008.56 172.687 984.786 224.839C981.106 232.918 977.084 240.689 973.538 247.552C966.437 261.282 960.828 272.127 960.828 279.111C960.828 284.556 964.256 287.25 971.3 287.347C972.417 287.363 974.226 287.165 976.731 286.895C1045.82 279.426 1110.32 309.115 1168.43 375.129C1178.58 386.658 1185.87 391.533 1190.1 389.622C1192.34 388.608 1193.53 385.72 1193.53 381.269Z" fill="white" fill-opacity="0.12"/>
<path d="M-197.996 598.369L-197.996 601.337C-178.38 607.55 -156.889 611.904 -133.288 614.481C-92.2429 618.965 -38.4801 622.915 13.3426 613.585C51.1112 606.786 67.957 593.138 67.957 569.338C67.957 569.334 67.957 569.334 67.957 569.33C67.9534 554.13 61.3141 536.47 53.6337 516.023C48.2902 501.813 42.7683 487.122 38.7679 471.413C38.3821 469.907 38.0108 468.412 37.6432 466.889C26.8433 422.166 25.3145 371.76 33.1186 318.279C35.2116 303.928 38.8298 289.386 42.3315 275.321C47.4347 254.814 52.7128 233.611 53.5682 212.082C54.0305 200.408 52.9639 192.099 50.3285 186.214C42.6227 169.035 23.3598 177.388 2.96857 186.234C-9.09439 191.461 -21.5614 196.87 -32.7471 197.758C-92.141 202.48 -146.282 165.654 -197.996 116.98L-197.996 120.701C-146.366 168.999 -92.2138 205.32 -32.5688 200.578C-20.9936 199.661 -8.34463 194.176 3.89305 188.864C24.0077 180.143 41.3778 172.614 48.0462 187.474C50.4523 192.843 51.4533 200.966 51.0202 211.957C50.1793 233.167 44.9413 254.216 39.8745 274.566C36.3582 288.703 32.7182 303.322 30.5998 317.831C22.741 371.707 24.2844 422.513 35.1826 467.62C35.5538 469.159 35.9251 470.662 36.3145 472.181C40.3586 488.055 45.9096 502.827 51.2786 517.11C58.8571 537.282 65.4054 554.7 65.4054 569.33C65.409 591.473 49.2256 604.258 12.9349 610.793C-38.5966 620.072 -92.1445 616.133 -133.04 611.67C-156.765 609.077 -178.332 604.674 -197.996 598.369Z" fill="white" fill-opacity="0.12"/>
<path d="M9.61114 -323.278C9.61114 -291.695 14.9874 -256.69 20.684 -219.63C27.4908 -175.363 34.5269 -129.59 34.5269 -79.7084C34.5269 -76.0245 34.4905 -72.4093 34.4141 -68.9678C34.3522 -65.9908 34.2793 -63.0584 34.2102 -60.1743C34.0246 -52.633 33.8498 -45.5076 33.8498 -38.6448C33.8498 4.32528 41.7414 30.9403 83.3648 48.479C109.682 59.5628 139.508 72.1331 158.742 102.291C164.184 110.822 168.828 119.349 172.927 126.882C182.427 144.332 189.933 158.114 200.296 158.631C209.826 159.103 221.284 148.411 237.453 123.961C252.96 100.505 260.498 81.2094 260.498 64.9714C260.498 63.5051 260.433 62.0348 260.316 60.6008C258.34 37.0113 240.773 21.1894 218.536 1.16252C208.424 -7.9461 196.969 -18.2666 186.064 -30.3683C138.787 -82.8267 104.306 -147.286 86.3459 -216.786C78.771 -246.095 74.9272 -275.065 74.9272 -302.892C74.9272 -371.629 97.3314 -424.641 123.219 -468.499L121.912 -468.499C96.1011 -424.629 73.8352 -371.609 73.8352 -302.892C73.8352 -274.956 77.69 -245.873 85.2976 -216.455C103.308 -146.757 137.885 -82.1117 185.292 -29.5079C196.237 -17.3617 207.718 -7.02511 217.848 2.09967C239.885 21.9529 257.295 37.6334 259.228 60.714C259.344 62.1075 259.402 63.5415 259.402 64.9714C259.402 80.9388 251.933 100.004 236.572 123.242C220.64 147.333 209.469 157.871 200.347 157.419C190.566 156.93 183.195 143.39 173.862 126.252C169.753 118.706 165.097 110.155 159.634 101.588C140.207 71.1314 110.213 58.4964 83.7506 47.3439C42.7205 30.0557 34.9418 3.78402 34.9418 -38.6448C34.9418 -45.4914 35.1166 -52.6087 35.2985 -60.138C35.3713 -63.0261 35.4405 -65.9586 35.506 -68.9356C35.5825 -72.3892 35.6189 -76.0164 35.6189 -79.7084C35.6189 -129.691 28.5755 -175.517 21.7614 -219.832C16.0757 -256.844 10.6995 -291.8 10.6995 -323.278C10.6995 -341.52 12.5231 -357.471 16.2723 -372.037C24.3312 -403.349 37.5444 -435.401 52.9635 -468.499L51.7332 -468.499C36.3979 -435.539 23.2611 -403.604 15.224 -372.368C11.4457 -357.689 9.61114 -341.637 9.61114 -323.278Z" fill="white" fill-opacity="0.12"/>
<path d="M643.925 136.806C642.312 135.764 641.344 134.645 641.344 133.817C641.344 133.086 642.156 132.367 642.643 132.008C669.437 112.037 714.817 111.605 727.313 119.001C729.002 119.999 729.934 121.089 729.934 122.063C729.931 123.323 728.471 124.967 725.93 126.575C693.516 147.099 655.314 144.146 643.925 136.806ZM732.479 122.067C732.479 122.063 732.479 122.063 732.479 122.063C732.479 119.934 731.146 118.064 728.511 116.505C715.225 108.64 669.223 108.786 641.224 129.657C637.591 132.371 638.061 136.302 642.643 139.25C654.812 147.091 693.472 150.383 727.197 129.031C730.702 126.813 732.479 124.466 732.479 122.067Z" fill="white" fill-opacity="0.12"/>
<path d="M34.7261 -323.278C34.7262 -294.062 39.9277 -260.196 45.4423 -224.315C52.4238 -178.905 59.6419 -131.952 59.6419 -79.708C59.6419 -75.8868 59.6055 -72.0818 59.5218 -68.3131L59.3143 -59.4185C59.1359 -52.0832 58.9649 -45.1558 58.9649 -38.6444C58.9649 17.9462 86.9965 20.7455 116.673 23.7103C132.951 25.3422 149.783 27.0225 164.084 36.9753C169.191 40.5299 175.656 50.0749 182.499 60.1812C197.066 81.7026 213.581 106.092 229.04 94.39C235.694 89.353 239.068 83.29 239.068 76.3666C239.068 72.5778 238.053 68.4698 236.043 64.1477C227.173 45.062 200.896 24.6474 179.784 8.24383C167.801 -1.06273 157.456 -9.10501 155.083 -13.4957C152.604 -18.1046 152.269 -23.2506 152.269 -27.6777C152.269 -29.3903 152.324 -31.1192 152.378 -32.848C152.436 -34.6172 152.491 -36.3905 152.491 -38.1597C152.491 -44.8084 151.774 -51.8408 146.572 -58.1825C140.293 -65.8329 132.169 -66.7984 124.31 -67.7234C117.241 -68.5635 110.569 -69.3552 104.949 -74.5659C87.9902 -90.3111 76.1384 -145.561 68.2979 -182.12C65.9865 -192.881 63.9917 -202.172 62.2009 -209.103C53.9817 -240.908 49.8103 -272.463 49.8103 -302.892C49.8103 -370.433 69.7574 -424.434 93.6249 -468.499L91.4883 -468.499C67.7409 -424.398 47.9903 -370.388 47.9903 -302.892C47.9903 -272.278 52.1836 -240.533 60.4536 -208.546C62.2336 -201.659 64.2247 -192.388 66.5251 -181.648C74.8971 -142.632 86.3595 -89.1963 103.784 -73.0189C109.827 -67.4083 117.088 -66.548 124.117 -65.7159C131.983 -64.7868 139.416 -63.9062 145.222 -56.8253C150.012 -50.9886 150.671 -44.4045 150.671 -38.1597C150.671 -36.4148 150.616 -34.6657 150.562 -32.9207C150.507 -31.1636 150.449 -29.4146 150.449 -27.6777C150.449 -22.9759 150.817 -17.4906 153.521 -12.4657C156.091 -7.69528 166.083 0.0683171 178.739 9.89998C198.584 25.314 225.761 46.4314 234.424 65.0728C239.705 76.4434 237.642 85.4389 228.017 92.7218C213.992 103.337 198.031 79.7638 183.955 58.9694C176.704 48.2612 170.443 39.0152 165.053 35.2627C150.383 25.0513 133.326 23.3509 116.837 21.6988C86.7599 18.6935 60.7849 16.1002 60.7849 -38.6444C60.7849 -45.1316 60.9559 -52.0428 61.1343 -59.362L61.3418 -68.2605C61.4255 -72.0494 61.4619 -75.8706 61.4619 -79.708C61.4619 -132.122 54.2292 -179.16 47.2331 -224.678C41.7367 -260.447 36.5462 -294.231 36.5462 -323.278C36.5462 -338.817 38.0421 -352.191 41.1216 -364.164C49.621 -397.177 64.7125 -432.036 82.1408 -468.499L80.0805 -468.499C62.7978 -432.283 47.8411 -397.625 39.3708 -364.717C36.244 -352.563 34.7261 -339.003 34.7261 -323.278Z" fill="white" fill-opacity="0.12"/>
<path d="M1017 664.784C1010.64 680.295 1007.54 698.524 1007.54 720.51C1007.54 766.296 1021.41 819.784 1033.64 866.971C1043.59 905.341 1052.99 941.581 1052.99 966.686C1052.99 981.461 1049.79 991.482 1043.2 997.325C1035.22 1004.4 1022.2 1005.55 1003.41 1000.82C962.77 990.613 913.954 932.255 870.885 880.766C844.71 849.469 819.98 819.905 799.883 804.399C735.499 754.723 620.85 738.384 552.797 793.234C535.605 807.089 518.515 830.585 500.424 855.463C461.906 908.431 418.251 968.461 362.894 944.316C336.894 932.978 325.049 905.171 312.506 875.737C304.665 857.33 296.555 838.301 284.623 823.242C274.286 810.195 264.177 799.713 254.404 789.574C229.288 763.525 209.454 742.949 209.454 699.987C209.454 693.217 209.952 685.865 210.939 678.142C224.716 570.252 245.825 444.056 322.377 311.632C406.636 165.878 495.059 30.359 649.497 -26.2478C716.131 -50.6694 794.7 -39.9613 845.012 0.391369C879.115 27.7455 897.144 65.8604 897.148 110.62C897.148 126.422 894.876 143.152 890.395 160.352C876.44 213.889 847.775 247.758 802.766 263.887C762.468 278.332 712.891 277.629 664.945 276.946C588.061 275.856 508.556 274.729 462.535 335.048C440.543 363.864 440.204 364.636 443.902 381.286C445.504 388.488 447.692 398.356 449.108 415.034C450.167 427.524 450.44 436.39 450.658 443.511C451.408 467.876 451.408 467.876 480.157 503.091L480.543 503.563C488.631 513.472 494.618 527.763 500.956 542.894C510.361 565.349 520.084 588.566 537.45 596.896C560.71 608.052 627.333 597.966 655.954 591.333C689.843 583.485 721.041 559.443 748.574 538.237L754.383 533.765C764.08 526.325 773.941 518.448 783.478 510.83C839.37 466.188 897.166 420.022 969.216 421.158C1015.83 421.893 1070.85 478.447 1076.26 531.184C1076.6 534.537 1076.78 537.885 1076.78 541.141C1076.78 572.114 1061.28 594.23 1044.88 617.641C1034.75 632.094 1024.28 647.035 1017 664.784ZM1078.06 530.954C1072.57 477.36 1016.63 419.885 969.245 419.138C896.591 417.995 838.547 464.354 782.415 509.19C772.885 516.804 763.032 524.673 753.342 532.105L747.536 536.577C720.149 557.674 689.111 581.591 655.583 589.358C627.147 595.946 561.034 606.008 538.175 595.041C521.442 587.019 511.868 564.153 502.605 542.042C496.205 526.769 490.167 512.341 481.889 502.206L481.504 501.734C453.203 467.068 453.203 467.068 452.478 443.442C452.26 436.293 451.983 427.394 450.92 414.844C449.49 398.016 447.284 388.068 445.671 380.801C444.645 376.18 443.906 372.843 443.906 369.879C443.906 362.588 448.547 356.504 463.926 336.348C509.393 276.761 588.461 277.879 664.923 278.966C761.146 280.331 860.646 281.741 892.143 160.909C896.671 143.532 898.968 126.611 898.968 110.62C898.964 65.1858 880.677 26.5054 846.078 -1.24462C795.315 -41.9608 716.087 -52.7781 648.929 -28.1626C493.923 28.6502 405.289 164.468 320.849 310.541C244.096 443.309 222.944 569.755 209.137 677.855C208.14 685.675 207.634 693.12 207.634 699.987C207.634 743.825 227.723 764.664 253.159 791.049C262.903 801.155 272.979 811.605 283.255 824.575C295.019 839.419 303.075 858.319 310.86 876.597C323.56 906.407 335.558 934.561 362.232 946.198C418.83 970.883 462.932 910.24 501.844 856.732C519.855 831.963 536.868 808.567 553.867 794.866C621.294 740.521 734.971 756.779 798.842 806.059C818.782 821.44 843.443 850.923 869.553 882.139C912.8 933.842 961.82 992.444 1003 1002.79C1022.37 1007.66 1035.89 1006.39 1044.33 998.903C1051.38 992.651 1054.81 982.114 1054.81 966.686C1054.81 941.299 1045.38 904.925 1035.39 866.414C1023.19 819.352 1009.36 766.013 1009.36 720.51C1009.36 698.819 1012.4 680.865 1018.65 665.62C1025.85 648.09 1036.25 633.241 1046.31 618.877C1062.91 595.187 1078.6 572.809 1078.6 541.141C1078.6 537.809 1078.42 534.383 1078.06 530.954Z" fill="white" fill-opacity="0.12"/>
<path d="M984.829 649.463C978.069 665.947 974.779 685.546 974.779 709.382C974.779 753.544 986.507 803.445 995.931 843.543C1002.62 872.008 1008.4 896.596 1008.4 911.949C1008.4 911.953 1008.4 911.957 1008.4 911.961C1008.4 920.213 1006.74 925.311 1003.32 927.533C998.519 930.659 990.023 928.357 977.352 920.496C947.213 901.79 920.142 868.987 893.956 837.262C872.458 811.213 852.155 786.609 830.591 769.717C786.569 735.233 736.377 714.883 685.439 710.864C627.199 706.272 571.816 722.877 520.831 760.221C502.693 773.506 487.452 798.182 472.71 822.046C445.243 866.515 419.301 908.52 377.426 877.433C356.077 861.583 348.084 847.15 338.827 830.444C332.992 819.913 326.382 807.981 315.506 794.256C306.071 782.352 296.847 772.783 287.926 763.529C264.939 739.685 246.783 720.849 246.783 681.478C246.783 675.282 247.238 668.557 248.14 661.488C260.327 566.059 280.697 460.537 346.653 335.629C433.486 171.197 514.566 60.0033 650.284 13.7694C713.387 -7.73186 783.115 0.241773 823.795 33.6024C847.579 53.1082 860.152 80.3088 860.152 112.272C860.152 129.915 856.37 149.167 848.908 169.48C835.021 207.288 803.255 230.421 751.803 240.209C706.809 248.764 652.664 246.001 604.897 243.557C591.44 242.871 578.732 242.22 566.418 241.812C513.147 240.039 469.027 256.293 438.836 288.806C411.343 318.414 396.205 360.992 396.205 408.704C396.205 472.085 421.838 536.286 466.526 584.846C493.819 614.499 521.974 632.809 552.612 640.823C579.97 647.98 608.722 646.708 640.514 636.933C699.577 618.76 758.348 574.837 820.574 528.328C842.301 512.09 864.771 495.299 887.011 479.905C938.437 444.319 974.666 450.483 996.004 461.918C1019.31 474.411 1036.18 500.069 1038.97 527.282C1039.29 530.36 1039.45 533.43 1039.45 536.415C1039.45 564.811 1025.27 585.044 1010.26 606.468C1001.02 619.653 991.461 633.289 984.829 649.463ZM1040.06 527.145C1037.23 499.528 1020.12 473.499 996.477 460.827C974.895 449.259 938.281 442.998 886.436 478.875C864.177 494.281 841.7 511.08 819.962 527.322C757.817 573.774 699.114 617.649 640.223 635.762C573.611 656.253 518.662 639.797 467.29 583.978C422.809 535.647 397.297 471.762 397.297 408.704C397.297 361.323 412.319 319.052 439.597 289.674C469.572 257.392 513.413 241.263 566.389 243.024C578.692 243.432 591.396 244.082 604.846 244.769C652.672 247.209 706.879 249.98 751.982 241.404C803.841 231.544 835.876 208.169 849.92 169.941C857.436 149.478 861.244 130.073 861.244 112.272C861.244 79.913 848.518 52.369 824.443 32.6249C783.501 -0.949756 713.383 -8.99608 649.964 12.6061C513.908 58.9571 432.677 170.333 345.714 335.015C279.659 460.104 259.264 565.769 247.063 661.318C246.153 668.44 245.691 675.221 245.691 681.478C245.691 721.379 264 740.367 287.179 764.413C296.083 773.647 305.288 783.196 314.683 795.056C325.501 808.704 332.086 820.592 337.899 831.078C347.221 847.906 355.273 862.443 376.822 878.439C419.592 910.192 445.832 867.71 473.613 822.733C488.293 798.966 503.472 774.386 521.432 761.23C634.381 678.501 754.865 711.882 829.958 770.707C851.43 787.522 871.694 812.081 893.156 838.078C919.396 869.876 946.529 902.751 976.821 921.55C989.859 929.641 998.708 931.943 1003.88 928.579C1007.66 926.119 1009.49 920.682 1009.49 911.961C1009.49 911.957 1009.49 911.953 1009.49 911.949C1009.49 896.438 1003.7 871.786 996.987 843.24C987.581 803.207 975.871 753.386 975.871 709.382C975.871 686.055 979.22 666.06 985.826 649.964C992.404 633.92 1001.92 620.343 1011.12 607.216C1026.25 585.622 1040.54 565.227 1040.54 536.415C1040.54 533.385 1040.38 530.267 1040.06 527.145Z" fill="white" fill-opacity="0.12"/>
<path d="M543.768 169.642C543.565 169.44 543.481 169.222 543.481 168.927C543.481 168.37 543.79 167.287 545.264 165.304C553.771 153.873 655.593 60.7383 752.173 88.0844C766.42 92.1196 774.264 100.263 774.264 111.016L774.264 111.02C774.26 118.795 770.009 127.492 762.288 135.51C744.878 153.594 706.196 171.448 649.849 167.332C616.51 164.896 588.224 167.63 569.503 169.448C555.758 170.777 545.829 171.738 543.768 169.642ZM649.729 169.343C706.658 173.508 745.843 155.355 763.53 136.984C771.625 128.578 776.08 119.357 776.084 111.02L776.084 111.016C776.084 99.2531 767.752 90.4111 752.621 86.1294C655.167 58.5329 552.442 152.483 543.859 164.019C541.388 167.348 541.067 169.642 542.538 171.137C545.188 173.831 553.88 172.987 569.66 171.46C588.326 169.65 616.528 166.92 649.729 169.343Z" fill="white" fill-opacity="0.12"/>
<path d="M486.424 203.871C486.034 203.488 485.852 202.991 485.852 202.296C485.852 199.771 488.36 195.082 492.124 188.813C516.752 147.822 629.039 38.898 754.062 69.6008C777.256 75.2962 792.238 94.4061 792.238 118.291C792.238 135.114 784.889 151.93 771.552 165.643C745.846 192.068 701.446 204.061 646.525 199.404C576.19 193.434 531.898 199.695 508.107 203.059C495.84 204.792 488.437 205.838 486.424 203.871ZM646.438 200.608C701.668 205.297 746.363 193.195 772.298 166.532C785.861 152.588 793.33 135.454 793.33 118.291C793.33 118.291 793.33 118.291 793.33 118.286C793.33 93.8164 778.009 74.2379 754.295 68.4173C685.004 51.4037 622.665 77.732 582.567 102.808C535.451 132.283 502.119 169.99 491.214 188.146C487.228 194.775 484.76 199.456 484.76 202.296C484.76 203.334 485.077 204.166 485.703 204.78C488.087 207.111 494.825 206.158 508.245 204.263C532 200.902 576.215 194.654 646.438 200.608Z" fill="white" fill-opacity="0.12"/>
<path d="M438.552 236.504C438.191 236.173 438.024 235.721 438.024 235.07C438.024 231.811 442.166 224.734 449.024 213.012C509.317 109.929 621.036 11.1556 753.746 43.0661C796.622 53.3704 825.425 86.7714 825.422 126.167C825.422 146.719 817.377 165.974 802.166 181.861C772.532 212.794 718.522 227.275 650.083 222.641C547.908 215.726 488.38 228.216 459.773 234.222C447.735 236.751 440.47 238.274 438.552 236.504ZM650.021 223.849C718.759 228.507 773.057 213.904 802.912 182.745C818.353 166.62 826.514 147.062 826.514 126.167L826.514 126.163C826.514 86.1816 797.365 52.3121 753.979 41.8826C689.97 26.4889 626.969 39.7216 566.716 81.2093C505.677 123.238 466.205 181.416 448.107 212.349C438.89 228.103 435.054 234.852 437.853 237.441C440.172 239.57 446.789 238.181 459.977 235.414C488.54 229.415 547.977 216.942 650.021 223.849Z" fill="white" fill-opacity="0.12"/>
<path d="M1057.61 683.413C1056.53 687.441 1056 692.255 1056 698.128C1056 722.934 1065.49 761.303 1076.47 805.732C1090.32 861.749 1106.01 925.238 1106.01 976.66C1106.01 1011.6 1098.87 1036.49 1084.16 1052.73C1070.69 1067.6 1050.44 1075.08 1023.95 1074.94C977.53 1074.69 926.519 1005.21 881.507 943.9C854.68 907.356 829.338 872.837 807.371 855.888C762.217 821.053 713.328 790.257 661.786 800.735C631.807 806.83 614.036 825.771 595.228 845.822C584.854 856.877 574.131 868.312 560.896 877.983C548.574 886.99 537.549 891.777 527.823 895.998C508.655 904.319 493.519 910.891 480.128 943.1C476.16 952.648 473.277 960.141 470.962 966.159C461.975 989.502 461.975 989.502 440.288 998.698C435.705 1000.64 430.18 1002.98 423.431 1006.02C397.343 1017.75 392.24 1026.92 392.24 1038.79C392.24 1041.31 392.466 1043.89 392.702 1046.62C392.964 1049.67 393.241 1052.81 393.241 1056.24C393.241 1063.74 392.098 1074.18 383.184 1088.48C376.373 1099.4 370.182 1104 364.787 1102.13C343.548 1094.77 335.598 991.976 335.598 971.535C335.598 971.041 335.602 970.708 335.624 970.544L334.448 970.225L335.565 969.602C329.45 956.171 321.61 948.889 314.027 941.848C303.941 932.481 294.412 923.631 287.961 901.168C285.665 893.178 283.903 886.417 282.487 880.984C274.839 851.638 274.453 851.242 241.071 838.648L236.852 837.056C230.639 834.705 226.249 836.604 222.376 838.28C217.36 840.449 213.028 842.324 205.093 834.819C200.867 830.812 195.862 816.436 191.443 803.748C188.466 795.197 185.652 787.114 183.29 782.804C179.61 776.091 174.612 771.527 169.778 767.116C163.506 761.388 157.584 755.984 154.435 746.225C152.31 739.64 151.232 731.53 151.232 722.122C151.232 698.185 157.97 670.043 163.382 647.431C164.624 642.253 165.781 637.406 166.764 633.015C183.151 559.584 212.937 489.713 241.741 422.139L244.711 415.179C313.114 254.605 389.594 133.252 478.512 44.1853C538.211 -15.6165 596.36 -54.212 656.278 -73.8108C726.654 -96.8226 812.482 -80.298 869.855 -32.6866C899.63 -7.98229 935.12 35.8805 935.124 104.533C935.128 122.289 932.645 140.818 927.753 159.592C885.081 323.317 739.583 317.917 606.556 300.007C566.796 294.655 534.48 302.931 513.099 323.956C495.019 341.733 485.06 368.606 485.06 399.628C485.06 456.671 520.404 529.455 585.906 551.995C661.01 577.834 725.023 522.689 786.929 469.367C852.922 412.517 921.157 353.737 1005.29 386.565C1053.82 405.505 1117.32 476.019 1123.39 535.171C1123.73 538.467 1123.9 541.755 1123.9 544.954C1123.9 576.339 1107.85 598.6 1090.86 622.165C1077.69 640.439 1064.06 659.339 1057.61 683.413ZM1125.92 534.852C1119.75 474.727 1055.35 403.106 1006.14 383.895C920.691 350.554 851.899 409.819 785.367 467.129C721.154 522.447 660.501 574.695 586.66 549.292C522.323 527.157 487.604 455.661 487.604 399.628C487.604 369.426 497.261 343.308 514.792 326.072C535.609 305.605 567.233 297.559 606.25 302.814C740.315 320.87 886.971 326.238 930.195 160.38C935.16 141.347 937.672 122.556 937.672 104.533C937.668 34.7091 901.621 -9.86046 871.38 -34.9567C813.399 -83.0688 726.665 -99.7755 655.561 -76.5252C595.265 -56.8054 536.795 -18.0078 476.805 42.085C387.632 131.41 310.959 253.054 242.407 413.972L239.437 420.931C210.582 488.63 180.738 558.631 164.289 632.336C163.313 636.711 162.156 641.546 160.922 646.704C155.469 669.474 148.684 697.813 148.684 722.122C148.684 731.857 149.812 740.287 152.036 747.178C155.425 757.672 161.897 763.581 168.158 769.301C172.828 773.563 177.655 777.969 181.113 784.275C183.359 788.371 186.132 796.336 189.066 804.77C193.813 818.403 198.72 832.5 203.441 836.968C212.533 845.571 218.008 843.204 223.3 840.914C227.104 839.27 230.697 837.715 236.033 839.734L240.248 841.326C272.692 853.565 272.692 853.565 280.041 881.771C281.46 887.22 283.229 894.002 285.533 902.029C292.206 925.275 302.47 934.804 312.393 944.017C320.026 951.105 327.237 957.804 333.079 970.416C333.05 970.755 333.05 971.133 333.05 971.535C333.05 986.091 339.591 1096.36 364.026 1104.83C370.611 1107.11 377.76 1102.15 385.28 1090.09C394.701 1074.98 395.789 1063.53 395.789 1056.24C395.789 1052.68 395.509 1049.46 395.239 1046.35C395.007 1043.69 394.788 1041.17 394.788 1038.79C394.788 1029.92 397.052 1020.94 424.389 1008.64C431.115 1005.61 436.63 1003.27 441.198 1001.34C463.682 991.805 463.984 991.488 473.303 967.27C475.614 961.266 478.49 953.795 482.443 944.284C495.401 913.108 510.118 906.722 528.751 898.636C538.594 894.358 549.754 889.515 562.297 880.346C575.725 870.53 586.536 859.006 596.99 847.862C615.518 828.109 633.019 809.456 662.248 803.514C712.869 793.226 761.216 823.723 805.915 858.21C827.591 874.933 852.82 909.299 879.534 945.686C924.896 1007.48 976.314 1077.51 1023.94 1077.77C1051.13 1077.91 1071.99 1070.16 1085.95 1054.73C1101.17 1037.93 1108.56 1012.39 1108.56 976.66C1108.56 924.855 1092.82 861.171 1078.93 804.984C1067.99 760.754 1058.55 722.554 1058.55 698.128C1058.55 692.611 1059.06 687.929 1060.05 684.221C1066.36 660.672 1079.83 641.994 1092.85 623.931C1110.13 599.965 1126.45 577.329 1126.45 544.954C1126.45 541.65 1126.27 538.249 1125.92 534.852Z" fill="white" fill-opacity="0.12"/>
<path d="M-197.999 152.616L-197.999 155.403C-193.187 160.424 -188.776 164.718 -184.779 167.978C-130.204 212.519 -79.8304 232.275 -30.7777 228.377C-11.6896 226.859 0.941239 229.46 7.8354 236.323C12.2289 240.693 14.3655 246.934 14.3655 255.392C14.3655 267.143 10.3288 281.628 6.05548 296.961C2.17524 310.88 -1.83972 325.276 -3.17559 338.86C-4.18023 349.068 -4.66803 359.303 -4.66803 370.149C-4.66803 404.378 0.24234 436.902 5.44026 471.333C6.31386 477.118 7.19116 482.926 8.04656 488.767L8.11205 489.207C9.88473 501.285 11.8904 514.978 11.8904 528.312C11.8904 553.517 4.35925 569.646 -11.1435 577.632C-43.5067 594.302 -82.4765 589.641 -116.853 585.529C-121.486 584.971 -126.073 584.422 -130.586 583.929C-155.706 581.186 -178.048 576.371 -197.999 569.262L-197.999 571.407C-178.07 578.436 -155.786 583.206 -130.765 585.941C-126.259 586.433 -121.679 586.983 -117.049 587.536C-82.4365 591.676 -43.201 596.37 -10.3755 579.462C5.8334 571.116 13.7104 554.382 13.7104 528.312C13.7104 514.817 11.6901 501.038 9.91019 488.884L9.84469 488.444C8.98565 482.599 8.10844 476.786 7.23484 470.998C2.05148 436.652 -2.84803 404.212 -2.84803 370.149C-2.84803 359.38 -2.36389 349.213 -1.36653 339.083C-0.0488481 325.688 3.93701 311.385 7.79177 297.554C12.1088 282.072 16.1855 267.45 16.1855 255.392C16.1855 246.328 13.8523 239.599 9.05119 234.816C1.76755 227.569 -11.3001 224.807 -30.9087 226.366C-79.51 230.223 -129.491 210.596 -183.701 166.354C-187.967 162.872 -192.754 158.142 -197.999 152.616Z" fill="white" fill-opacity="0.12"/>
<path d="M77.9259 165.763C86.6401 179.456 90.8771 198.207 90.8771 223.077C90.8807 252.297 84.9802 284.979 79.7751 313.816C76.7102 330.813 73.8127 346.865 72.5533 359.977C71.9381 366.399 70.5039 383.635 70.5039 404.878C70.5039 444.229 75.3087 494.696 98.2007 511.653C108.152 519.029 120.66 519.332 135.376 512.554C142.285 509.367 146.038 501.134 149.667 493.173C152.539 486.876 155.509 480.36 159.939 476.749C165.191 472.463 172.548 469.935 179.664 467.491C189.139 464.235 198.938 460.871 204.725 453.224C211.903 443.744 215.245 433.343 215.245 420.482C215.245 411.559 213.618 402.43 212.049 393.608C210.495 384.887 208.889 375.872 208.889 367.163C208.889 358.806 210.382 351.531 213.45 344.918C220.909 328.862 230.948 322.109 240.656 315.573C253.316 307.058 265.273 299.016 270.864 272.502C282.563 217.03 294.782 201.826 324.31 165.097C328.118 160.363 332.205 155.273 336.613 149.699C347.071 136.478 359.007 126.711 370.549 117.275C380.847 108.853 391.497 100.141 401.22 88.9356C413.181 75.1455 418.502 62.159 423.649 49.6008C430.507 32.8579 436.986 17.0522 459.179 2.70862L462.659 0.470828C490.778 -17.5728 516.797 -35.8143 516.797 -47.0233C516.797 -48.8248 516.16 -50.3799 514.904 -51.6523C510.918 -55.6957 500.322 -56.7863 482.512 -54.9969C472.072 -53.9467 462.747 -45.5772 453.723 -37.4824C443.997 -28.7535 434.806 -20.5093 424.654 -21.0021C412.478 -21.5918 406.487 -29.7634 400.146 -38.4075C395.505 -44.7411 390.704 -51.2848 383.271 -55.1181C365.413 -64.3237 349.415 -66.5574 333.949 -68.7103C312.418 -71.7156 292.082 -74.547 269.073 -95.9352C227.908 -134.204 196.812 -187.886 181.509 -247.09C176.413 -266.814 173.935 -285.067 173.935 -302.893C173.935 -363.386 203.586 -406.788 234.977 -452.739C238.534 -457.938 242.108 -463.197 245.675 -468.5L242.494 -468.5C239.309 -463.778 236.12 -459.089 232.95 -454.444C201.289 -408.105 171.387 -364.335 171.387 -302.893C171.387 -284.801 173.898 -266.293 179.06 -246.31C194.501 -186.569 225.888 -132.394 267.439 -93.7621C291.019 -71.8448 311.716 -68.9607 333.629 -65.907C348.906 -63.7784 364.7 -61.5769 382.197 -52.5531C389.098 -48.9985 393.71 -42.7093 398.169 -36.6262C404.587 -27.873 411.222 -18.8249 424.541 -18.1786C435.658 -17.6373 445.657 -26.6086 455.325 -35.2811C464.05 -43.1132 473.073 -51.204 482.741 -52.1815C503.693 -54.286 510.86 -51.9189 513.186 -49.5641C513.91 -48.8289 514.249 -48.0211 514.249 -47.0233C514.249 -35.8991 477.205 -12.1318 461.385 -1.98102L457.894 0.264834C435.002 15.0608 428.363 31.2705 421.331 48.4295C416.271 60.7696 411.04 73.5337 399.385 86.9725C389.812 98.0078 379.252 106.648 369.038 114.997C357.387 124.53 345.338 134.382 334.699 147.837C330.298 153.399 326.21 158.484 322.406 163.214C292.577 200.323 280.23 215.685 268.382 271.855C263.034 297.21 251.525 304.958 239.334 313.157C229.324 319.895 218.972 326.855 211.186 343.626C207.925 350.646 206.341 358.345 206.341 367.163C206.341 376.146 207.972 385.303 209.548 394.153C211.099 402.85 212.697 411.834 212.697 420.482C212.697 432.64 209.545 442.464 202.774 451.407C197.467 458.415 188.036 461.654 178.91 464.789C171.594 467.301 164.026 469.903 158.428 474.471C153.51 478.478 150.402 485.3 147.392 491.897C143.817 499.745 140.436 507.157 134.397 509.94C120.518 516.334 108.815 516.12 99.6131 509.302C77.6602 493.04 73.0519 443.538 73.0519 404.878C73.0519 383.768 74.4752 366.654 75.0867 360.276C76.3352 347.298 79.2217 331.302 82.2757 314.373C87.5027 285.407 93.4287 252.58 93.4251 223.077C93.4251 197.601 89.0352 178.321 80.008 164.127C57.4837 128.779 23.5189 138.918 -9.32851 148.725C-44.418 159.199 -80.7053 170.025 -104.38 126.485C-107.219 121.266 -108.66 114.286 -108.66 105.747C-108.66 79.7139 -95.8331 43.033 -83.4279 7.55987C-72.6245 -23.3287 -62.4216 -52.5086 -62.0175 -71.4893C-61.9593 -74.2239 -61.9339 -76.9424 -61.9339 -79.681C-61.9339 -79.6891 -61.9339 -79.6972 -61.9339 -79.7093C-61.9339 -120.51 -68.271 -161.756 -74.4044 -201.64C-80.5232 -241.455 -86.8495 -282.628 -86.8495 -323.279C-86.8495 -351.72 -83.8028 -377.39 -77.5311 -401.763C-71.7326 -424.298 -64.0813 -446.539 -55.3198 -468.5L-58.0973 -468.5C-66.7095 -446.805 -74.2442 -424.827 -79.9808 -402.539C-86.318 -377.911 -89.4013 -351.983 -89.4013 -323.279C-89.4013 -282.389 -83.053 -241.096 -76.916 -201.163C-70.8044 -161.392 -64.4818 -120.268 -64.4818 -79.7093C-64.4018 -76.9424 -64.5073 -74.2765 -64.5656 -71.55C-64.9586 -53.0661 -75.0814 -24.1123 -85.8048 6.54196C-98.2937 42.2534 -111.205 79.1807 -111.205 105.747C-111.205 114.937 -109.687 122.199 -106.564 127.943C-81.8955 173.313 -44.6693 162.201 -8.66969 151.452C24.811 141.463 56.4317 132.023 77.9259 165.763Z" fill="white" fill-opacity="0.12"/>
</g>
<defs>
<linearGradient id="paint0_linear_4087_8266" x1="439.752" y1="0.411528" x2="439.752" y2="302.412" gradientUnits="userSpaceOnUse">
<stop stop-color="#FF6130"/>
<stop offset="1" stop-color="#FD403A"/>
</linearGradient>
<clipPath id="clip0_4087_8266">
<rect y="0.411621" width="1200" height="299" rx="24" fill="white"/>
</clipPath>
</defs>
</svg>
