<svg width="47" height="53" viewBox="0 0 47 53" fill="none" xmlns="http://www.w3.org/2000/svg">
<path d="M15.7117 5.45016L14.548 1.83599L13.948 2.03116L15.1118 5.64533L15.7117 5.45016ZM16.7382 3.97559L18.0248 3.62139L18.632 4.54662L19.2753 4.36591L17.0056 1.05534L16.3261 1.24327L16.0804 5.255L16.702 5.08152L16.7454 3.97559H16.7382ZM16.8104 1.7854H16.8394L17.7574 3.1877L16.7454 3.4696L16.8104 1.7854ZM4.79686 7.69095C4.9342 7.76324 5.086 7.79215 5.25225 7.79215C5.4185 7.79215 5.59198 7.74878 5.77992 7.67649L6.37988 7.45242C6.57505 7.38013 6.7413 7.34399 6.87141 7.35845C7.00152 7.37291 7.10272 7.43796 7.18946 7.55361C7.25452 7.65481 7.29066 7.75601 7.29066 7.86443C7.29066 7.97286 7.25452 8.08128 7.18946 8.18971C7.12441 8.29813 7.01598 8.39933 6.87864 8.4933C6.78467 8.55836 6.68347 8.60895 6.5895 8.64509C6.49553 8.68124 6.40156 8.69569 6.31482 8.69569C6.22808 8.69569 6.14134 8.68123 6.06906 8.65232C5.99677 8.62341 5.92449 8.58004 5.86666 8.52221L5.35345 8.8764C5.44742 8.99928 5.56307 9.09325 5.68595 9.15831C5.81607 9.23059 5.9534 9.26673 6.11243 9.28119C6.27145 9.29564 6.43048 9.27396 6.60396 9.22336C6.77744 9.17276 6.95092 9.0788 7.13163 8.95591C7.38463 8.78243 7.57256 8.59449 7.69545 8.3921C7.81833 8.18971 7.88338 7.98009 7.87616 7.77047C7.87616 7.56084 7.80387 7.35845 7.67376 7.16328C7.55811 6.99703 7.43523 6.88138 7.29066 6.81633C7.14609 6.75127 6.98706 6.72236 6.81358 6.72958C6.6401 6.74404 6.45216 6.78741 6.24254 6.86692L5.64258 7.091C5.48356 7.15606 5.33899 7.17774 5.21611 7.15605C5.09323 7.1416 4.99925 7.07654 4.92697 6.97534C4.833 6.83801 4.81132 6.68621 4.85469 6.52719C4.90529 6.36817 5.02094 6.2236 5.20165 6.09349C5.31731 6.01398 5.43296 5.96338 5.54138 5.93447C5.64981 5.91278 5.75824 5.91278 5.85943 5.93447C5.96063 5.96338 6.04014 6.00675 6.11966 6.08626L6.62564 5.7393C6.50276 5.5875 6.35097 5.47908 6.17026 5.41403C5.98955 5.34897 5.78715 5.33452 5.57753 5.37066C5.36068 5.4068 5.14382 5.50076 4.91974 5.65979C4.70289 5.81158 4.52941 5.98506 4.41376 6.18023C4.2981 6.37539 4.24028 6.57779 4.24028 6.78018C4.24028 6.9898 4.2981 7.17774 4.42821 7.36568C4.52941 7.51747 4.65229 7.6259 4.78963 7.69818L4.79686 7.69095ZM7.9123 6.47659C8.04964 6.8091 8.22312 7.06931 8.43997 7.25725C8.65682 7.44519 8.89536 7.56084 9.17004 7.59698C9.43749 7.63312 9.72663 7.59698 10.023 7.46687C10.3194 7.33676 10.5579 7.17774 10.7241 6.96089C10.8904 6.74404 10.9844 6.49828 11.0061 6.20914C11.0277 5.92001 10.9699 5.61642 10.8398 5.28392L10.6446 4.80684C10.5073 4.47434 10.3338 4.21412 10.117 4.02619C9.9001 3.83825 9.66157 3.72259 9.38689 3.68645C9.11944 3.65031 8.8303 3.68645 8.53394 3.80933C8.23757 3.93222 7.99904 4.09846 7.83279 4.31531C7.66653 4.53217 7.57257 4.77793 7.55088 5.06706C7.5292 5.3562 7.58702 5.65979 7.71713 5.99229L7.9123 6.46936V6.47659ZM8.33877 4.61168C8.43997 4.48157 8.57008 4.38037 8.73634 4.30809C8.90259 4.24304 9.06884 4.22135 9.22787 4.25026C9.38689 4.27918 9.54591 4.35869 9.68325 4.4888C9.82059 4.61891 9.94348 4.80684 10.0447 5.04538L10.2398 5.52968C10.341 5.77544 10.3844 5.99229 10.3699 6.18023C10.3627 6.36817 10.3049 6.53442 10.2109 6.66453C10.117 6.79464 9.97962 6.89584 9.81336 6.96812C9.64711 7.03318 9.48086 7.05486 9.3146 7.02594C9.14835 6.99703 8.99656 6.91752 8.85922 6.78741C8.72188 6.6573 8.599 6.46936 8.4978 6.23083L8.30263 5.74653C8.20143 5.50799 8.15806 5.29114 8.17252 5.09598C8.17975 4.90804 8.23758 4.74179 8.33877 4.61168ZM45.7168 22.0031C45.6662 22.0753 45.6084 22.1332 45.5433 22.1838C45.4783 22.2271 45.3987 22.2561 45.3192 22.2705V22.8922C45.471 22.8777 45.6156 22.8416 45.7457 22.7765C45.8758 22.7114 45.9915 22.6175 46.0854 22.4946C46.1794 22.3717 46.2589 22.2271 46.3095 22.0609C46.3601 21.8874 46.389 21.6923 46.389 21.4754C46.389 21.1718 46.3384 20.9044 46.2445 20.6875C46.1505 20.4707 46.0132 20.2972 45.8397 20.1815C45.6662 20.0659 45.4566 20.008 45.2253 20.008C45.0301 20.008 44.8566 20.0442 44.7193 20.1237C44.5819 20.2032 44.4663 20.3189 44.3795 20.4634C44.2928 20.6152 44.2205 20.7959 44.1699 21.0056L44.0181 21.6272C43.9747 21.7934 43.9169 21.9236 43.8302 22.0175C43.7507 22.1043 43.6422 22.1549 43.5194 22.1549C43.3531 22.1549 43.2158 22.0898 43.1073 21.9525C42.9989 21.8224 42.9483 21.6417 42.9483 21.4176C42.9483 21.273 42.97 21.1501 43.0134 21.0489C43.0567 20.9405 43.1146 20.861 43.1941 20.7887C43.2736 20.7236 43.3603 20.6803 43.4615 20.6586V20.0442C43.2664 20.0586 43.0929 20.1237 42.9339 20.2394C42.7748 20.355 42.652 20.5068 42.5652 20.7092C42.4712 20.9044 42.4279 21.1429 42.4279 21.4103C42.4279 21.6778 42.4785 21.9163 42.5724 22.1187C42.6664 22.3283 42.7965 22.4874 42.97 22.603C43.1363 22.7187 43.3314 22.7765 43.5555 22.7765C43.7362 22.7765 43.8952 22.7404 44.0326 22.6681C44.1699 22.5958 44.2856 22.4874 44.3723 22.35C44.4591 22.2127 44.5313 22.0464 44.5747 21.8513L44.7337 21.2296C44.7843 21.02 44.8494 20.8682 44.9361 20.7743C45.0229 20.6731 45.1313 20.6297 45.2759 20.6297C45.3915 20.6297 45.4999 20.6586 45.5867 20.7237C45.6734 20.7887 45.7457 20.8754 45.7891 20.9911C45.8397 21.1068 45.8614 21.2513 45.8614 21.4176C45.8614 21.5332 45.8469 21.6417 45.818 21.7356C45.7891 21.8296 45.7529 21.9163 45.7023 21.9886L45.7168 22.0031ZM33.8405 6.44045L34.8959 3.36117L35.9512 3.72259L36.1247 3.20938L33.4285 2.28415L33.255 2.79736L34.3032 3.15878L33.2478 6.23806L33.8478 6.44045H33.8405ZM46.3167 18.4612H42.5218V19.09H46.3167V18.4612ZM11.2735 4.52494C11.3892 4.63336 11.5265 4.70565 11.6855 4.74179C11.8445 4.78516 12.0253 4.79239 12.2204 4.77793L12.8637 4.72733C13.0734 4.70565 13.2396 4.72733 13.3625 4.7707C13.4854 4.8213 13.5649 4.90804 13.6155 5.04538C13.6516 5.16103 13.6589 5.26223 13.63 5.37066C13.601 5.47185 13.536 5.56582 13.442 5.65256C13.348 5.7393 13.2179 5.80435 13.0661 5.86218C12.9577 5.89832 12.8493 5.92001 12.7481 5.92724C12.6469 5.92724 12.5529 5.92724 12.4662 5.89832C12.3794 5.87664 12.3072 5.8405 12.2421 5.7899C12.1771 5.7393 12.1265 5.68147 12.0831 5.60919L11.4976 5.81158C11.5554 5.94892 11.6421 6.0718 11.7433 6.173C11.8445 6.2742 11.9747 6.35371 12.1192 6.4043C12.2638 6.4549 12.43 6.48382 12.6035 6.47659C12.777 6.46936 12.9794 6.43322 13.1818 6.36094C13.4709 6.25974 13.7022 6.12963 13.8829 5.97061C14.0564 5.81158 14.1721 5.62365 14.2299 5.42126C14.2805 5.21886 14.2733 5.00201 14.201 4.78516C14.1359 4.59722 14.042 4.45265 13.9263 4.34423C13.8107 4.2358 13.6589 4.17075 13.4926 4.13461C13.3191 4.09846 13.124 4.09124 12.9071 4.11292L12.271 4.17075C12.0975 4.18521 11.953 4.17075 11.8445 4.12015C11.7289 4.06955 11.6566 3.99004 11.6132 3.86716C11.5554 3.70814 11.5771 3.55634 11.6711 3.41177C11.765 3.26721 11.9096 3.15878 12.1264 3.0865C12.2566 3.04313 12.3867 3.02144 12.4951 3.02867C12.6035 3.0359 12.7119 3.06481 12.7987 3.11541C12.8854 3.16601 12.9577 3.2383 13.0083 3.32504L13.5866 3.12987C13.5071 2.94916 13.3914 2.80459 13.2324 2.69617C13.0734 2.58774 12.8854 2.51546 12.6686 2.49378C12.4517 2.47209 12.2132 2.501 11.9602 2.58774C11.7072 2.67448 11.4976 2.79736 11.3313 2.94916C11.1651 3.10818 11.0566 3.28167 10.9988 3.47683C10.941 3.672 10.9482 3.88162 11.0205 4.09124C11.0783 4.26472 11.1651 4.40206 11.2807 4.50325L11.2735 4.52494ZM25.817 2.42872L27.3567 2.7034L27.4506 2.18296L25.911 1.91551L26.1134 0.773432L27.7976 1.06979L27.8916 0.542126L25.5857 0.137335L24.9279 3.87439L25.5496 3.98281L25.8243 2.43595L25.817 2.42872ZM28.253 4.58277L29.2433 0.917997L28.6361 0.751743L27.6458 4.41651L28.253 4.58277ZM29.5686 5.00924L30.4143 2.40703H30.436L31.2817 5.56582L31.8094 5.7393L32.9804 2.12513L32.4021 1.9372L31.5636 4.53217H31.5347L30.689 1.38061L30.1613 1.20713L28.9903 4.8213L29.5686 5.00924ZM19.9403 5.87664C19.5211 6.00675 18.8344 6.2236 17.873 6.53442C16.9116 6.84523 15.8635 7.1922 14.7287 7.5753C13.5866 7.9584 12.524 8.31982 11.541 8.66678C10.5507 9.01374 9.83505 9.28119 9.38689 9.46913C7.94844 10.0763 6.94369 10.7991 6.37988 11.6449C5.81606 12.4906 5.53416 13.7122 5.53416 15.3096V29.9036C5.53416 31.7469 5.81607 33.3732 6.38711 34.79C6.95815 36.1995 7.87616 37.5223 9.14112 38.7584C10.4061 39.9872 12.0758 41.2304 14.1359 42.4882C16.196 43.7387 18.7115 45.1193 21.6824 46.6156C21.9426 46.7457 22.2173 46.8541 22.5064 46.9408C22.7956 47.0276 23.0558 47.071 23.2871 47.071C23.5184 47.071 23.7714 47.0276 24.0533 46.9408C24.3352 46.8541 24.6099 46.7457 24.8846 46.6156C27.8699 45.1482 30.3926 43.7821 32.4599 42.5316C34.5272 41.2811 36.1898 40.0305 37.4403 38.7945C38.6908 37.5512 39.6088 36.2284 40.1726 34.8045C40.7437 33.3877 41.0256 31.7541 41.0256 29.9109V15.3169C41.0256 13.7194 40.7437 12.4978 40.1798 11.6665C39.616 10.8281 38.6185 10.1052 37.1728 9.48358C36.7102 9.29564 35.9946 9.02819 35.0115 8.68123C34.0285 8.33427 32.9731 7.97286 31.831 7.58976C30.689 7.20666 29.6408 6.85969 28.6867 6.54888C27.7253 6.23806 27.0386 6.0212 26.6194 5.89109C26.0989 5.73207 25.5424 5.60919 24.9352 5.51522C24.328 5.42125 23.7714 5.37788 23.2726 5.37788C22.7739 5.37788 22.2101 5.42848 21.6101 5.52968C21.0101 5.63087 20.4391 5.75376 19.9259 5.89832L19.9403 5.87664ZM37.4692 7.78492L37.6716 7.29339L36.0597 6.63562L36.4934 5.58027L38.0113 6.20191L38.2065 5.73207L36.6885 5.11044L37.1005 4.1057L38.7125 4.76347L38.9149 4.27195L36.7247 3.37563L35.2862 6.88861L37.4764 7.78492H37.4692ZM41.0039 9.98234L42.3917 9.0282L43.382 10.4594L41.9942 11.4135L42.3556 11.934L45.4783 9.77271L45.1168 9.25227L43.8157 10.1486L42.8254 8.71738L44.1265 7.82106L43.7651 7.30062L40.6425 9.4619L41.0039 9.98234ZM38.3366 7.37291C38.3005 7.65481 38.3366 7.91503 38.4595 8.15357C38.5751 8.3921 38.7775 8.60172 39.0522 8.78966C39.2763 8.93423 39.5004 9.0282 39.7317 9.05711C39.963 9.08602 40.1798 9.06434 40.3822 8.99205C40.5846 8.91254 40.7581 8.78243 40.8954 8.60172C40.8954 8.60172 40.9027 8.58727 40.9099 8.58004C40.9099 8.58004 40.9171 8.56558 40.9244 8.55835L40.4111 8.21862C40.3244 8.31982 40.2232 8.3921 40.1148 8.4427C39.9991 8.48607 39.8762 8.50053 39.7461 8.48607C39.616 8.47161 39.4859 8.42102 39.3558 8.33428C39.1968 8.22585 39.0811 8.09574 39.0161 7.94395C38.951 7.79215 38.9366 7.6259 38.9727 7.43796C39.0088 7.25002 39.0956 7.05486 39.2329 6.85246L39.5076 6.43322C39.6449 6.2236 39.7967 6.06458 39.9558 5.95615C40.1148 5.84773 40.2738 5.79713 40.4401 5.7899C40.6063 5.7899 40.7653 5.8405 40.9244 5.94169C41.0545 6.02843 41.1484 6.1224 41.2135 6.24529C41.2786 6.36094 41.3147 6.48382 41.3147 6.61393C41.3147 6.74404 41.2858 6.87415 41.2207 6.99703L41.7339 7.33676C41.7339 7.33676 41.7412 7.32231 41.7484 7.32231C41.7556 7.32231 41.7556 7.30785 41.7629 7.30785C41.8496 7.14882 41.9074 6.9898 41.9219 6.82355C41.9436 6.6573 41.9219 6.49105 41.8785 6.33202C41.8351 6.173 41.7556 6.02121 41.6472 5.87664C41.5388 5.73207 41.4014 5.60919 41.2352 5.50076C40.9605 5.32005 40.6931 5.22609 40.4256 5.21163C40.1582 5.19718 39.8979 5.26946 39.6522 5.41403C39.4064 5.56582 39.1895 5.7899 38.9872 6.08626L38.7052 6.51273C38.5101 6.81632 38.3872 7.10546 38.3511 7.38014L38.3366 7.37291ZM19.1669 1.95165C19.2609 2.07453 19.3838 2.17573 19.5356 2.24078C19.6874 2.30584 19.8608 2.35644 20.056 2.37089L20.6921 2.43595C20.9017 2.45763 21.0607 2.501 21.1764 2.56606C21.2848 2.63834 21.3499 2.73954 21.3716 2.88411C21.386 2.99976 21.3716 3.10819 21.3282 3.20216C21.2848 3.29612 21.1981 3.38286 21.0897 3.44792C20.9812 3.51297 20.8439 3.55634 20.6776 3.58526C20.562 3.59971 20.4536 3.60694 20.3524 3.59248C20.2512 3.57802 20.1644 3.55634 20.0849 3.5202C20.0054 3.48406 19.9403 3.43346 19.8825 3.37563C19.8247 3.31781 19.7885 3.24552 19.7596 3.16601L19.1452 3.25998C19.1814 3.41177 19.2392 3.54189 19.3187 3.66477C19.4054 3.78765 19.5139 3.88162 19.644 3.96113C19.7741 4.04064 19.9331 4.09124 20.1066 4.12015C20.2801 4.14907 20.4825 4.14907 20.6993 4.12015C21.0029 4.07678 21.2559 3.99004 21.4583 3.85993C21.6607 3.72982 21.8053 3.5708 21.8992 3.38286C21.9932 3.19493 22.0149 2.97807 21.9787 2.74677C21.9498 2.5516 21.8848 2.39258 21.7908 2.26247C21.6896 2.13959 21.5595 2.04562 21.4005 1.98056C21.2415 1.91551 21.0463 1.87214 20.8294 1.85045L20.1933 1.79263C20.0198 1.77817 19.8825 1.7348 19.7813 1.66975C19.6801 1.60469 19.6223 1.50349 19.6006 1.38061C19.5789 1.21436 19.6223 1.06979 19.738 0.946911C19.8536 0.824029 20.0199 0.744516 20.2439 0.708374C20.3813 0.686689 20.5114 0.693919 20.6198 0.715604C20.7282 0.744518 20.8222 0.787889 20.9017 0.852944C20.9812 0.918 21.0318 1.00474 21.068 1.09871L21.6752 1.01196C21.6318 0.824026 21.545 0.657774 21.4077 0.520436C21.2704 0.383097 21.0969 0.281904 20.8945 0.224077C20.6849 0.16625 20.4463 0.151793 20.1789 0.195163C19.9114 0.231304 19.6874 0.318042 19.4994 0.440924C19.3115 0.563806 19.1669 0.715606 19.0802 0.903543C18.9862 1.08425 18.9573 1.29387 18.9934 1.51072C19.0223 1.69143 19.0802 1.84322 19.1741 1.9661L19.1669 1.95165ZM23.2293 3.79488L23.1787 0H22.5498L22.6004 3.80933H23.2293V3.79488ZM42.5291 16.3866L46.324 17.695V17.0517L45.2686 16.7119V15.3819L46.324 15.0422V14.3772L42.5291 15.6855V16.3866ZM43.1869 16.0325L44.7915 15.5265V16.5746L43.1869 16.0614V16.0325ZM43.9025 35.2165C43.5266 35.0574 43.1868 34.9707 42.8833 34.9779C42.5797 34.9779 42.305 35.0647 42.0737 35.2382C41.8424 35.4116 41.6472 35.6646 41.4954 36.0116L40.975 37.2115L44.459 38.7222L44.9795 37.5223C45.1313 37.1754 45.1891 36.8645 45.153 36.5754C45.1168 36.2863 44.9939 36.0333 44.7843 35.802C44.5747 35.5779 44.2856 35.3827 43.9097 35.2165H43.9025ZM44.459 37.3705L44.2133 37.9271L41.705 36.8356L41.9508 36.279C42.052 36.0477 42.1821 35.8815 42.3339 35.7731C42.4929 35.6646 42.6809 35.614 42.8977 35.6213C43.1146 35.6285 43.3676 35.6935 43.6422 35.8164C43.8519 35.9104 44.0253 36.0044 44.1627 36.12C44.3 36.2284 44.4012 36.3513 44.4735 36.4742C44.5458 36.6043 44.5747 36.7417 44.5747 36.8935C44.5747 37.0452 44.5313 37.2043 44.459 37.3778V37.3705ZM34.1441 43.4062L35.12 47.3023L35.6621 46.9481L35.373 45.8855L36.4861 45.1554L37.3391 45.8494L37.8957 45.4879L34.7296 43.0231L34.1369 43.4062H34.1441ZM34.8019 43.7604L36.103 44.8302L35.2212 45.4012L34.773 43.7748L34.7947 43.7604H34.8019ZM31.9033 44.7651L32.2069 47.6781L32.1852 47.6926L29.8577 45.9144L29.3083 46.2252L31.166 49.5358L31.6576 49.2611L30.3637 46.9553L30.3926 46.9408L32.337 48.4154L32.7346 48.1913L32.4888 45.7626L32.5177 45.7482L33.8116 48.054L34.3104 47.7721L32.4527 44.4615L31.9033 44.7723V44.7651ZM17.8513 47.071L19.3838 47.895L19.6368 47.4251L17.5477 46.3047L15.7551 49.6515L17.8441 50.7719L18.0971 50.302L16.5647 49.478L17.1068 48.466L18.5525 49.2395L18.791 48.7913L17.3453 48.0179L17.8586 47.0637L17.8513 47.071ZM26.0917 50.3888C25.9833 50.2731 25.8459 50.1864 25.6797 50.1358C25.5134 50.0852 25.3183 50.0563 25.1014 50.0563H24.4653C24.2918 50.0563 24.1545 50.0201 24.0461 49.9623C23.9376 49.9045 23.8726 49.8105 23.8437 49.6948C23.8075 49.5286 23.8437 49.384 23.9449 49.2467C24.0461 49.1093 24.2123 49.0226 24.4292 48.972C24.5665 48.9431 24.6894 48.9359 24.805 48.9503C24.9207 48.972 25.0147 49.0082 25.0942 49.066C25.1737 49.1238 25.2388 49.2033 25.2821 49.2973L25.8748 49.1527C25.817 48.9648 25.7158 48.813 25.564 48.6829C25.4195 48.56 25.2388 48.4733 25.0219 48.4299C24.8123 48.3865 24.5737 48.3937 24.3063 48.4588C24.0461 48.5166 23.8292 48.6178 23.6485 48.7624C23.4678 48.8997 23.3449 49.066 23.2654 49.2611C23.1859 49.4563 23.1787 49.6587 23.2293 49.8755C23.2726 50.049 23.3449 50.1936 23.4461 50.3093C23.5473 50.4249 23.6774 50.5116 23.8364 50.5695C23.9955 50.6273 24.1689 50.6562 24.3713 50.6562H25.0147C25.2243 50.6634 25.3906 50.6924 25.5062 50.7574C25.6219 50.8152 25.6941 50.9164 25.7303 51.0538C25.7592 51.1694 25.752 51.2778 25.7086 51.379C25.6652 51.4802 25.6002 51.567 25.4917 51.6393C25.3833 51.7115 25.2532 51.7694 25.0942 51.8055C24.9785 51.8344 24.8701 51.8417 24.7689 51.8417C24.6677 51.8417 24.5737 51.82 24.4942 51.7911C24.4147 51.7622 24.3424 51.7188 24.2774 51.6609C24.2196 51.6031 24.169 51.5381 24.14 51.4658L23.5329 51.6104C23.5762 51.7549 23.6485 51.885 23.7425 51.9935C23.8364 52.1091 23.9521 52.1958 24.0967 52.2609C24.2412 52.326 24.393 52.3693 24.5737 52.3838C24.7545 52.3982 24.9496 52.3838 25.1665 52.326C25.4628 52.2537 25.7086 52.1452 25.8965 52.0007C26.0845 51.8561 26.2218 51.6826 26.2941 51.4875C26.3664 51.2923 26.3808 51.0755 26.323 50.8514C26.2796 50.6562 26.2001 50.5044 26.0917 50.3888ZM22.2534 48.7262C22.1089 48.5672 21.9065 48.4443 21.6607 48.3576L20.2945 47.8588L18.9934 51.4224L19.5789 51.6393L20.0777 50.2659L20.815 50.5333L20.9523 52.138L21.6173 52.3838L21.4366 50.649C21.574 50.649 21.7113 50.6201 21.8414 50.5622C21.9715 50.5044 22.0944 50.4249 22.2028 50.3093C22.3113 50.2008 22.398 50.0563 22.4558 49.89C22.5353 49.6659 22.557 49.4563 22.5209 49.2611C22.4847 49.0588 22.3908 48.8853 22.2462 48.7262H22.2534ZM21.8414 49.6876C21.7691 49.89 21.6535 50.0201 21.4944 50.0779C21.3354 50.1358 21.1475 50.1285 20.9306 50.0418L20.2512 49.796L20.7066 48.56L21.4005 48.813C21.6101 48.8925 21.7547 49.0009 21.8342 49.1527C21.9137 49.3045 21.9209 49.4852 21.8414 49.6876ZM27.0097 47.4107L27.5952 51.3863L28.1662 51.0899L27.9855 49.9984L29.171 49.384L29.9517 50.1647L30.5444 49.8611L27.6386 47.0926L27.0169 47.4179L27.0097 47.4107ZM27.8843 49.5069L27.6024 47.8444L27.6241 47.8299L28.8168 49.0226L27.8843 49.5069ZM42.5291 27.7135H45.2542V27.7424L42.5291 29.5133V30.0699H46.324V29.4627H43.5916V29.441L46.324 27.6629V27.1063H42.5291V27.7135ZM45.7963 25.3498H44.6542V23.709H44.1482V25.3498H43.064V23.6078H42.5291V25.9787H46.324V23.6078H45.7891V25.3498H45.7963ZM45.6445 31.4361C45.406 31.277 45.1096 31.1758 44.7482 31.1397L44.235 31.0819C43.8808 31.0385 43.5627 31.0674 43.2953 31.1614C43.0278 31.2553 42.811 31.4144 42.6447 31.6312C42.4785 31.8481 42.3845 32.1227 42.3411 32.4408C42.305 32.7661 42.3411 33.048 42.4496 33.301C42.558 33.554 42.7315 33.7563 42.97 33.9154C43.2085 34.0744 43.5049 34.1684 43.8663 34.2117L44.3795 34.2696C44.7337 34.3129 45.0446 34.284 45.3192 34.1828C45.5867 34.0889 45.8035 33.9298 45.9698 33.7058C46.1288 33.4889 46.23 33.2142 46.2661 32.8962C46.3023 32.5709 46.2661 32.289 46.165 32.036C46.0638 31.783 45.883 31.5806 45.6445 31.4288V31.4361ZM45.5505 33.3082C45.4493 33.4383 45.3048 33.5323 45.1241 33.5973C44.9434 33.6624 44.7193 33.6696 44.459 33.6407L43.9386 33.5829C43.6784 33.554 43.4688 33.4889 43.3025 33.3877C43.1362 33.2865 43.0206 33.1636 42.9555 33.0118C42.8833 32.86 42.8616 32.6938 42.8833 32.5131C42.9049 32.3324 42.9628 32.1806 43.0712 32.0505C43.1796 31.9204 43.317 31.8264 43.4977 31.7613C43.6784 31.6963 43.9025 31.6818 44.1627 31.718L44.6831 31.7758C44.9434 31.8047 45.153 31.8698 45.3192 31.971C45.4855 32.0722 45.6011 32.195 45.6662 32.3468C45.7385 32.4986 45.7602 32.6649 45.7385 32.8384C45.7168 33.0191 45.6517 33.1709 45.5505 33.301V33.3082ZM40.1437 38.3174L42.2038 40.1028L42.1821 40.1245L38.9582 39.6836L38.5968 40.1028L41.4665 42.5894L41.8641 42.134L39.7967 40.3414L39.8112 40.3197L43.0423 40.7678L43.4037 40.3486L40.534 37.862L40.1365 38.3174H40.1437ZM37.3824 41.0787L39.8401 43.97L40.3244 43.558L37.8668 40.6666L37.3824 41.0787ZM1.13929 28.5592C1.4212 28.6821 1.76816 28.7471 2.17295 28.7471C2.57774 28.7471 2.92471 28.6893 3.20662 28.5592C3.48852 28.4291 3.69815 28.2484 3.84994 28.0026C3.99451 27.7496 4.06679 27.4388 4.06679 27.0629V25.7546H0.271884V27.0629C0.271884 27.4388 0.344172 27.7496 0.495968 27.9954C0.640536 28.2411 0.857387 28.4291 1.13929 28.5592ZM0.799559 26.3834H3.53189V26.9906C3.53189 27.2436 3.48129 27.446 3.3801 27.6123C3.2789 27.7785 3.1271 27.8942 2.92471 27.9737C2.72231 28.0532 2.46932 28.0966 2.16572 28.0966C1.93442 28.0966 1.73925 28.0749 1.56577 28.0315C1.39951 27.9881 1.25495 27.9158 1.13929 27.8291C1.02364 27.7424 0.936901 27.6267 0.886302 27.4822C0.835703 27.3376 0.799559 27.1786 0.799559 26.9906V26.3834ZM4.06679 24.0342H1.34169V24.0053L4.06679 22.2344V21.6778H0.271884V22.285H3.00422V22.3067L0.271884 24.0848V24.6414H4.06679V24.0342ZM4.47881 11.5943L3.79211 10.7269L4.52941 9.62092L5.59198 9.92451L5.96063 9.36793L2.07898 8.34873L1.68865 8.93422L4.11739 12.1292L4.47881 11.5943ZM2.41872 9.0282L2.43318 9.00651L4.05234 9.47635L3.46684 10.351L2.41872 9.03543V9.0282ZM4.05957 30.4602L0.228516 29.2531L0.242975 29.8964L1.30554 30.2072L1.34169 31.5373L0.300798 31.8987L0.315258 32.5637L4.07402 31.1541L4.05234 30.453L4.05957 30.4602ZM1.81877 31.3855L1.78985 30.3373L3.40901 30.8072V30.8361L1.81877 31.3855ZM1.60914 16.2204C1.60914 16.4806 1.65974 16.7047 1.76817 16.8926C1.87659 17.0806 2.02116 17.2251 2.20187 17.3263C2.38981 17.4275 2.59943 17.4781 2.83074 17.4781C3.06204 17.4781 3.2789 17.4275 3.45961 17.3263C3.64755 17.2251 3.79211 17.0806 3.89331 16.8999C4.00174 16.7119 4.05234 16.4878 4.05234 16.2349V14.7747H0.25743V15.4036H1.60191V16.2276L1.60914 16.2204ZM2.12959 15.3964H3.53912V16.1337C3.53912 16.3505 3.48129 16.524 3.35841 16.6469C3.23553 16.7698 3.06205 16.8276 2.83797 16.8276C2.68617 16.8276 2.56329 16.7987 2.45486 16.7408C2.34644 16.683 2.26692 16.6035 2.21632 16.5023C2.1585 16.4011 2.12959 16.271 2.12959 16.1264V15.3891V15.3964ZM0.799559 18.9527H1.94165V20.5935H2.44763V18.9527H3.53189V20.6947H4.06679V18.3238H0.271884V20.6947H0.806789V18.9527H0.799559ZM5.77992 37.2621L1.89105 38.2668L2.24524 38.809L3.30781 38.5054L4.04511 39.6185L3.35118 40.4787L3.71983 41.0353L6.16302 37.8476L5.77269 37.2621H5.77992ZM4.37039 39.2354L3.79211 38.3608L5.41127 37.9054L5.42573 37.9271L4.37039 39.2354ZM10.3194 45.206L10.2977 45.1916L10.4061 41.9388L9.95071 41.6208L7.77496 44.7362L8.27372 45.0832L9.84228 42.8424L9.86396 42.8568L9.75554 46.1168L10.2109 46.4349L12.3867 43.3194L11.8879 42.9725L10.3266 45.206H10.3194ZM7.99181 39.9294L4.45712 41.8376L4.9342 42.2713L5.89558 41.7292L6.87864 42.6328L6.41602 43.6375L6.90755 44.0929L8.51948 40.4137L7.99904 39.9366L7.99181 39.9294ZM7.09549 42.1774L6.32205 41.469L7.78941 40.6377L7.8111 40.6594L7.09549 42.1846V42.1774ZM15.2274 47.071L15.2419 47.0493C15.372 47.0782 15.4949 47.0854 15.6105 47.071C15.7262 47.0565 15.8418 47.0059 15.943 46.9408C16.0442 46.8686 16.131 46.7674 16.2033 46.6373C16.3478 46.3843 16.3767 46.1385 16.2828 45.8927C16.1888 45.647 16.0081 45.4446 15.719 45.2856L14.4034 44.5338L12.524 47.8299L13.8179 48.5672C14.0492 48.6973 14.2661 48.7768 14.4829 48.7985C14.6998 48.8274 14.8949 48.7985 15.0684 48.7118C15.2419 48.625 15.3865 48.4877 15.4949 48.2925C15.5889 48.1335 15.6322 47.9745 15.6322 47.8299C15.6322 47.6781 15.6033 47.5408 15.531 47.4107C15.4587 47.2806 15.3575 47.1722 15.2274 47.071ZM14.9455 47.9528C14.8443 48.1263 14.707 48.2203 14.5335 48.2347C14.36 48.2492 14.1287 48.1697 13.8396 48.0034L13.3119 47.707L13.9119 46.6517L14.613 47.0493C14.7504 47.1288 14.8516 47.2155 14.9238 47.3095C14.9961 47.4035 15.0323 47.5119 15.0323 47.6203C15.0323 47.7287 15.0033 47.8444 14.9383 47.9528H14.9455ZM15.054 46.6734C14.9311 46.6517 14.7865 46.5939 14.6202 46.4999L14.1576 46.2325L14.707 45.2711L15.3575 45.647C15.5238 45.7409 15.625 45.8566 15.6684 45.9867C15.7117 46.124 15.69 46.2614 15.6105 46.4059C15.5527 46.5144 15.4732 46.5867 15.3792 46.6373C15.2853 46.6806 15.1768 46.6951 15.054 46.6734ZM4.76072 35.2237L2.12959 35.9393V35.9104L4.29087 33.4889L4.1463 32.954L0.481508 33.9443L0.640534 34.5298L3.2789 33.8142V33.8359L1.11038 36.2646L1.25495 36.7995L4.91974 35.8092L4.76072 35.2237Z" fill="white"/>
<path d="M22.4996 46.9408C22.2105 46.8541 21.9358 46.7457 21.6756 46.6156C18.7047 45.1193 16.1892 43.7387 14.1291 42.4882C12.069 41.2377 10.4065 39.9944 9.13431 38.7584C7.86934 37.5296 6.94411 36.2068 6.38029 34.79C5.80925 33.3805 5.52734 31.7469 5.52734 29.9037V15.3096C5.52734 13.7122 5.80925 12.4906 6.37306 11.6449C6.93688 10.7991 7.9344 10.0763 9.38008 9.46913C9.82824 9.28119 10.5438 9.01374 11.5341 8.66678C12.5244 8.31982 13.587 7.9584 14.7219 7.5753C15.8567 7.1922 16.9048 6.84524 17.8662 6.53442C18.8276 6.2236 19.5143 6.00675 19.9335 5.87664C20.454 5.73208 21.0178 5.60919 21.6177 5.508C22.2177 5.4068 22.7743 5.3562 23.2803 5.3562C23.7863 5.3562 24.3428 5.39957 24.9428 5.49354C25.5428 5.58751 26.1066 5.71039 26.627 5.86941C27.0463 5.99952 27.733 6.21638 28.6943 6.52719C29.6557 6.83801 30.7038 7.18497 31.8387 7.56807C32.9735 7.95117 34.0361 8.31259 35.0192 8.65955C36.0022 9.00651 36.7179 9.27396 37.1805 9.4619C38.6189 10.0835 39.6237 10.8064 40.1875 11.6449C40.7513 12.4833 41.0332 13.6977 41.0332 15.2952V29.8892C41.0332 31.7324 40.7513 33.366 40.1803 34.7828C39.6092 36.1995 38.6984 37.5295 37.4479 38.7728C36.1974 40.0089 34.5349 41.2594 32.4676 42.5099C30.4002 43.7604 27.8703 45.1265 24.8922 46.5939C24.6175 46.724 24.3428 46.8324 24.0609 46.9192C23.779 47.0059 23.526 47.0493 23.2947 47.0493C23.0634 47.0493 22.8032 47.0059 22.5141 46.9192L22.4996 46.9408Z" fill="white"/>
<path d="M19.4777 16.0831H17.6055V14.9699H19.2608V14.0158H17.6055V12.9893H19.4777V11.9991H16.3695V17.0734H19.4777V16.0831ZM22.4919 19.2274L20.6559 24.3017H21.9498L22.2534 23.4054H24.1472L24.4508 24.3017H25.7591L23.9231 19.2274H22.4919ZM22.5786 22.4512L23.2003 20.5936L23.8292 22.4512H22.5786ZM27.053 16.177H28.9469L29.2504 17.0734H30.5588L28.7228 11.9991H27.2916L25.4555 17.0734H26.7494L27.053 16.177ZM27.9999 13.3652L28.6288 15.2229H27.3783L27.9999 13.3652ZM15.7767 16.1192H14.1576V11.9991H12.9215V17.0734H15.7767V16.1192ZM21.3137 16.7842C21.704 17.0011 22.1522 17.1167 22.6582 17.1167C23.0846 17.1167 23.4605 17.0372 23.8002 16.871C24.14 16.7047 24.4147 16.4951 24.6315 16.2276C24.8484 15.9602 25.0074 15.6783 25.1014 15.3675V14.2182H22.4124V15.1289H23.981C23.887 15.4181 23.728 15.6421 23.5256 15.7939C23.3159 15.9457 23.0557 16.0252 22.7521 16.0252C22.3112 16.0252 21.9642 15.8951 21.704 15.6349C21.451 15.3747 21.3281 15.006 21.3281 14.5434C21.3281 14.1025 21.451 13.7555 21.6896 13.4881C21.9281 13.2279 22.2534 13.0978 22.6509 13.0978C22.8822 13.0978 23.0846 13.1411 23.2509 13.2279C23.4244 13.3146 23.5545 13.4447 23.6412 13.6182H25.0074C24.87 13.0978 24.5954 12.693 24.1833 12.3966C23.7641 12.1003 23.2509 11.9557 22.6509 11.9557C22.1522 11.9557 21.704 12.0641 21.3137 12.2882C20.9233 12.505 20.6198 12.8159 20.4029 13.2062C20.186 13.5965 20.0704 14.0447 20.0704 14.5507C20.0704 15.0566 20.1788 15.4976 20.4029 15.8879C20.6198 16.2782 20.9306 16.5818 21.3209 16.7987L21.3137 16.7842ZM33.9706 16.1192H32.3514V11.9991H31.1154V17.0734H33.9706V16.1192ZM30.8552 19.2274H29.6191V22.3717L27.5518 19.2274H26.3157V24.3017H27.5518V21.1718L29.6191 24.3017H30.8552V19.2274ZM25.8459 26.4557L24.0099 31.53H25.3037L25.6073 30.6337H27.5012L27.8048 31.53H29.1131L27.2771 26.4557H25.8459ZM25.9326 29.6796L26.5543 27.8219L27.1831 29.6796H25.9326ZM32.9731 26.4557V29.6001L30.9058 26.4557H29.6697V31.53H30.9058V28.4002L32.9731 31.53H34.2091V26.4557H32.9731ZM27.3277 33.1564C27.1614 33.1564 27.0169 33.1926 26.894 33.2576C26.7711 33.3227 26.6627 33.4383 26.5543 33.6046L23.0774 39.0692L21.3281 36.9802C21.1474 36.7706 20.9233 36.6622 20.6487 36.6622C20.3957 36.6622 20.186 36.7417 20.0198 36.9079C19.8535 37.0669 19.774 37.2766 19.774 37.5223C19.774 37.6308 19.7957 37.7392 19.8319 37.8332C19.868 37.9344 19.9403 38.0355 20.0342 38.144L22.3184 40.8401C22.5208 41.0787 22.781 41.1943 23.0991 41.1943C23.4533 41.1943 23.728 41.057 23.9087 40.7895L28.0216 34.5732C28.0867 34.472 28.1373 34.378 28.1662 34.2768C28.1951 34.1828 28.2096 34.0889 28.2096 34.0021C28.2096 33.7564 28.1228 33.554 27.9566 33.3949C27.7903 33.2359 27.5807 33.1492 27.3277 33.1492V33.1564ZM13.8829 26.4557L12.0469 31.53H13.3408L13.6443 30.6337H15.5382L15.8418 31.53H17.1501L15.3141 26.4557H13.8829ZM13.9696 29.6796L14.5913 27.8219L15.2201 29.6796H13.9696ZM19.962 23.0873C20.1788 22.7042 20.2945 22.2633 20.2945 21.7645C20.2945 21.2658 20.186 20.8176 19.962 20.4418C19.7451 20.0587 19.4343 19.7623 19.0367 19.5454C18.6392 19.3358 18.1693 19.2274 17.6344 19.2274H15.7334V24.3017H17.6344C18.1621 24.3017 18.6319 24.1933 19.0295 23.9837C19.4343 23.774 19.7451 23.4704 19.962 23.0873ZM17.5549 23.2319H16.9694V20.2827H17.5549C18.0248 20.2827 18.3862 20.4129 18.6464 20.6731C18.9066 20.9333 19.0367 21.2947 19.0367 21.7645C19.0367 22.2344 18.9066 22.5958 18.6464 22.8488C18.3862 23.1018 18.0248 23.2319 17.5549 23.2319ZM21.0824 31.53L22.2172 28.4869V31.53H23.4533V26.4557H22.0004L20.5908 29.9687L19.1668 26.4557H17.7067V31.53H18.9428V28.4797L20.0848 31.53H21.0824Z" fill="#101820"/>
</svg>
