<svg width="147" height="30" viewBox="0 0 147 30" fill="none" xmlns="http://www.w3.org/2000/svg">
<path fill-rule="evenodd" clip-rule="evenodd" d="M2.25 0C1.00736 0 0 1.00736 0 2.25V23.25C0 26.9779 3.02208 30 6.75 30H26.25C27.9069 30 29.25 28.6569 29.25 27V24H15.75C10.7794 24 6.75 19.9706 6.75 15C6.75 10.0294 10.7794 6 15.75 6H29.1C28.4051 2.57664 25.3784 0 21.75 0H2.25Z" fill="#DE4F3F"/>
<path d="M20.25 15C20.25 17.4853 18.2353 19.5 15.75 19.5C13.2647 19.5 11.25 17.4853 11.25 15C11.25 12.5147 13.2647 10.5 15.75 10.5C18.2353 10.5 20.25 12.5147 20.25 15ZM13.0223 15C13.0223 16.5065 14.2435 17.7277 15.75 17.7277C17.2565 17.7277 18.4777 16.5065 18.4777 15C18.4777 13.4935 17.2565 12.2723 15.75 12.2723C14.2435 12.2723 13.0223 13.4935 13.0223 15Z" fill="#DE4F3F"/>
<path d="M45.9817 11.4504C45.8875 10.6555 45.5057 10.0384 44.8363 9.59904C44.1669 9.15974 43.3458 8.94008 42.3731 8.94008C41.6618 8.94008 41.0395 9.05514 40.506 9.28525C39.9778 9.51537 39.5646 9.83177 39.2665 10.2345C38.9737 10.6372 38.8272 11.0948 38.8272 11.6073C38.8272 12.0362 38.9292 12.4049 39.1332 12.7134C39.3424 13.0168 39.6091 13.2704 39.9333 13.4744C40.2576 13.6731 40.5975 13.8378 40.9532 13.9686C41.3088 14.0941 41.6357 14.1961 41.9338 14.2745L43.5655 14.7138C43.9839 14.8237 44.4493 14.9753 44.9618 15.1688C45.4796 15.3623 45.9738 15.6265 46.4445 15.9612C46.9204 16.2906 47.3127 16.7143 47.6212 17.232C47.9298 17.7498 48.0841 18.3852 48.0841 19.1383C48.0841 20.0065 47.8566 20.7909 47.4016 21.4917C46.9518 22.1925 46.2928 22.7495 45.4247 23.1627C44.5618 23.5758 43.5132 23.7824 42.2789 23.7824C41.1284 23.7824 40.1321 23.5968 39.2901 23.2254C38.4533 22.8541 37.7943 22.3364 37.3132 21.6722C36.8373 21.008 36.5679 20.2366 36.5052 19.358H38.5134C38.5657 19.9646 38.7697 20.4667 39.1253 20.8642C39.4862 21.2564 39.9412 21.5493 40.4903 21.7428C41.0447 21.931 41.6409 22.0252 42.2789 22.0252C43.0216 22.0252 43.6884 21.9049 44.2793 21.6643C44.8703 21.4185 45.3384 21.0786 45.6836 20.6445C46.0287 20.2052 46.2013 19.6927 46.2013 19.1069C46.2013 18.5735 46.0523 18.1394 45.7542 17.8047C45.4561 17.47 45.0638 17.198 44.5774 16.9888C44.0911 16.7796 43.5655 16.5966 43.0006 16.4397L41.0238 15.8749C39.7686 15.514 38.7749 14.9989 38.0427 14.3294C37.3106 13.66 36.9445 12.784 36.9445 11.7014C36.9445 10.8019 37.1877 10.0174 37.674 9.34801C38.1656 8.67336 38.8246 8.15037 39.6509 7.77905C40.4825 7.4025 41.4108 7.21423 42.4358 7.21423C43.4713 7.21423 44.3918 7.39989 45.1972 7.77121C46.0026 8.1373 46.6406 8.63936 47.1113 9.27741C47.5872 9.91545 47.8383 10.6398 47.8644 11.4504H45.9817ZM64.8386 15.4669C64.8386 17.1614 64.5326 18.6258 63.9207 19.86C63.3088 21.0943 62.4694 22.0461 61.4025 22.7155C60.3357 23.3849 59.1171 23.7197 57.7469 23.7197C56.3767 23.7197 55.1581 23.3849 54.0912 22.7155C53.0243 22.0461 52.1849 21.0943 51.573 19.86C50.9611 18.6258 50.6552 17.1614 50.6552 15.4669C50.6552 13.7725 50.9611 12.3081 51.573 11.0739C52.1849 9.83962 53.0243 8.88778 54.0912 8.21836C55.1581 7.54894 56.3767 7.21423 57.7469 7.21423C59.1171 7.21423 60.3357 7.54894 61.4025 8.21836C62.4694 8.88778 63.3088 9.83962 63.9207 11.0739C64.5326 12.3081 64.8386 13.7725 64.8386 15.4669ZM62.9558 15.4669C62.9558 14.0758 62.7231 12.9017 62.2576 11.9446C61.7974 10.9876 61.1724 10.2632 60.3827 9.77163C59.5982 9.28002 58.7196 9.03422 57.7469 9.03422C56.7741 9.03422 55.8929 9.28002 55.1032 9.77163C54.3187 10.2632 53.6937 10.9876 53.2283 11.9446C52.7681 12.9017 52.5379 14.0758 52.5379 15.4669C52.5379 16.8581 52.7681 18.0322 53.2283 18.9892C53.6937 19.9463 54.3187 20.6706 55.1032 21.1623C55.8929 21.6539 56.7741 21.8997 57.7469 21.8997C58.7196 21.8997 59.5982 21.6539 60.3827 21.1623C61.1724 20.6706 61.7974 19.9463 62.2576 18.9892C62.7231 18.0322 62.9558 16.8581 62.9558 15.4669ZM68.1098 23.5V7.43388H70.0553V21.7741H77.5236V23.5H68.1098ZM91.0794 7.43388H93.0249V18.0714C93.0249 19.1697 92.766 20.1503 92.2482 21.0132C91.7357 21.8709 91.0114 22.5482 90.0752 23.045C89.1391 23.5366 88.0408 23.7824 86.7804 23.7824C85.52 23.7824 84.4218 23.5366 83.4856 23.045C82.5495 22.5482 81.8225 21.8709 81.3048 21.0132C80.7922 20.1503 80.536 19.1697 80.536 18.0714V7.43388H82.4815V17.9145C82.4815 18.699 82.6541 19.3972 82.9992 20.0091C83.3444 20.6157 83.836 21.0943 84.4741 21.4447C85.1173 21.7898 85.8861 21.9624 86.7804 21.9624C87.6747 21.9624 88.4435 21.7898 89.0868 21.4447C89.7301 21.0943 90.2217 20.6157 90.5616 20.0091C90.9068 19.3972 91.0794 18.699 91.0794 17.9145V7.43388ZM105.696 11.4504C105.602 10.6555 105.22 10.0384 104.551 9.59904C103.881 9.15974 103.06 8.94008 102.088 8.94008C101.376 8.94008 100.754 9.05514 100.22 9.28525C99.6923 9.51537 99.2791 9.83177 98.981 10.2345C98.6882 10.6372 98.5417 11.0948 98.5417 11.6073C98.5417 12.0362 98.6437 12.4049 98.8477 12.7134C99.0569 13.0168 99.3236 13.2704 99.6478 13.4744C99.9721 13.6731 100.312 13.8378 100.668 13.9686C101.023 14.0941 101.35 14.1961 101.648 14.2745L103.28 14.7138C103.698 14.8237 104.164 14.9753 104.676 15.1688C105.194 15.3623 105.688 15.6265 106.159 15.9612C106.635 16.2906 107.027 16.7143 107.336 17.232C107.644 17.7498 107.799 18.3852 107.799 19.1383C107.799 20.0065 107.571 20.7909 107.116 21.4917C106.666 22.1925 106.007 22.7495 105.139 23.1627C104.276 23.5758 103.228 23.7824 101.993 23.7824C100.843 23.7824 99.8466 23.5968 99.0046 23.2254C98.1678 22.8541 97.5088 22.3364 97.0277 21.6722C96.5518 21.008 96.2824 20.2366 96.2197 19.358H98.2279C98.2802 19.9646 98.4842 20.4667 98.8398 20.8642C99.2007 21.2564 99.6557 21.5493 100.205 21.7428C100.759 21.931 101.355 22.0252 101.993 22.0252C102.736 22.0252 103.403 21.9049 103.994 21.6643C104.585 21.4185 105.053 21.0786 105.398 20.6445C105.743 20.2052 105.916 19.6927 105.916 19.1069C105.916 18.5735 105.767 18.1394 105.469 17.8047C105.171 17.47 104.778 17.198 104.292 16.9888C103.806 16.7796 103.28 16.5966 102.715 16.4397L100.738 15.8749C99.4831 15.514 98.4894 14.9989 97.7572 14.3294C97.0251 13.66 96.659 12.784 96.659 11.7014C96.659 10.8019 96.9022 10.0174 97.3885 9.34801C97.8801 8.67336 98.5391 8.15037 99.3654 7.77905C100.197 7.4025 101.125 7.21423 102.15 7.21423C103.186 7.21423 104.106 7.39989 104.912 7.77121C105.717 8.1373 106.355 8.63936 106.826 9.27741C107.302 9.91545 107.553 10.6398 107.579 11.4504H105.696ZM112.943 7.43388V23.5H110.997V7.43388H112.943ZM116.844 23.5V7.43388H118.789V15.4042H118.977L126.195 7.43388H128.736L121.99 14.6825L128.736 23.5H126.383L120.797 16.0318L118.789 18.2911V23.5H116.844ZM141.798 7.43388H143.743V18.0714C143.743 19.1697 143.484 20.1503 142.967 21.0132C142.454 21.8709 141.73 22.5482 140.794 23.045C139.858 23.5366 138.759 23.7824 137.499 23.7824C136.239 23.7824 135.14 23.5366 134.204 23.045C133.268 22.5482 132.541 21.8709 132.023 21.0132C131.511 20.1503 131.254 19.1697 131.254 18.0714V7.43388H133.2V17.9145C133.2 18.699 133.373 19.3972 133.718 20.0091C134.063 20.6157 134.554 21.0943 135.193 21.4447C135.836 21.7898 136.605 21.9624 137.499 21.9624C138.393 21.9624 139.162 21.7898 139.805 21.4447C140.449 21.0943 140.94 20.6157 141.28 20.0091C141.625 19.3972 141.798 18.699 141.798 17.9145V7.43388Z" fill="#DE4F3F"/>
</svg>
