<svg width="117" height="121" viewBox="0 0 117 121" fill="none" xmlns="http://www.w3.org/2000/svg">
<circle cx="6.12383" cy="8.14361" r="5.75249" fill="#C92700"/>
<circle cx="83.7818" cy="8.14361" r="5.75249" fill="#C92700"/>
<circle cx="6.12383" cy="34.0301" r="5.75249" fill="#C92700"/>
<circle cx="83.7818" cy="34.0298" r="5.75249" fill="#C92700"/>
<circle cx="6.12383" cy="59.9161" r="5.75249" fill="#C92700"/>
<circle cx="83.7818" cy="59.9161" r="5.75249" fill="#C92700"/>
<circle cx="6.12383" cy="85.8023" r="5.75249" fill="#C92700"/>
<circle cx="83.7818" cy="85.8023" r="5.75249" fill="#C92700"/>
<circle cx="6.12383" cy="111.689" r="5.75249" fill="#C92700"/>
<circle cx="83.7818" cy="111.689" r="5.75249" fill="#C92700"/>
<circle cx="32.0084" cy="8.14361" r="5.75249" fill="#C92700"/>
<circle cx="109.669" cy="8.14361" r="5.75249" fill="#C92700"/>
<circle cx="32.0084" cy="34.0298" r="5.75249" fill="#C92700"/>
<circle cx="109.669" cy="34.0298" r="5.75249" fill="#C92700"/>
<circle cx="32.0084" cy="59.9161" r="5.75249" fill="#C92700"/>
<circle cx="109.669" cy="59.9161" r="5.75249" fill="#C92700"/>
<circle cx="32.0084" cy="85.8023" r="5.75249" fill="#C92700"/>
<circle cx="109.669" cy="85.8023" r="5.75249" fill="#C92700"/>
<circle cx="32.0084" cy="111.689" r="5.75249" fill="#C92700"/>
<circle cx="109.669" cy="111.689" r="5.75249" fill="#C92700"/>
<circle cx="57.8951" cy="8.14361" r="5.75249" fill="#C92700"/>
<circle cx="57.8951" cy="34.0298" r="5.75249" fill="#C92700"/>
<circle cx="57.8951" cy="59.9161" r="5.75249" fill="#C92700"/>
<circle cx="57.8951" cy="85.8023" r="5.75249" fill="#C92700"/>
<circle cx="57.8951" cy="111.689" r="5.75249" fill="#C92700"/>
</svg>
