<svg width="40" height="40" viewBox="0 0 40 40" fill="none" xmlns="http://www.w3.org/2000/svg">
<rect width="40" height="40" rx="8" fill="#72E128"/>
<rect width="40" height="40" rx="8" fill="white" fill-opacity="0.88"/>
<path d="M19.8003 18.9C17.5303 18.31 16.8003 17.7 16.8003 16.75C16.8003 15.66 17.8103 14.9 19.5003 14.9C21.2803 14.9 21.9403 15.75 22.0003 17H24.2103C24.1403 15.28 23.0903 13.7 21.0003 13.19V11H18.0003V13.16C16.0603 13.58 14.5003 14.84 14.5003 16.77C14.5003 19.08 16.4103 20.23 19.2003 20.9C21.7003 21.5 22.2003 22.38 22.2003 23.31C22.2003 24 21.7103 25.1 19.5003 25.1C17.4403 25.1 16.6303 24.18 16.5203 23H14.3203C14.4403 25.19 16.0803 26.42 18.0003 26.83V29H21.0003V26.85C22.9503 26.48 24.5003 25.35 24.5003 23.3C24.5003 20.46 22.0703 19.49 19.8003 18.9Z" fill="#72E128"/>
</svg>
