<svg width="16" height="17" viewBox="0 0 16 17" fill="none" xmlns="http://www.w3.org/2000/svg">
<path d="M14.5 5.17236V12.1724C14.5 12.5702 14.342 12.9517 14.0607 13.233C13.7794 13.5143 13.3978 13.6724 13 13.6724H3C2.60218 13.6724 2.22064 13.5143 1.93934 13.233C1.65804 12.9517 1.5 12.5702 1.5 12.1724V5.17236M14.5 5.17236C14.5 4.77454 14.342 4.39301 14.0607 4.1117C13.7794 3.8304 13.3978 3.67236 13 3.67236H3C2.60218 3.67236 2.22064 3.8304 1.93934 4.1117C1.65804 4.39301 1.5 4.77454 1.5 5.17236M14.5 5.17236V5.33436C14.5 5.59046 14.4345 5.8423 14.3096 6.06589C14.1848 6.28949 14.0047 6.47739 13.7867 6.6117L8.78667 9.68836C8.55014 9.83405 8.2778 9.9112 8 9.9112C7.7222 9.9112 7.44986 9.83405 7.21333 9.68836L2.21333 6.61236C1.99528 6.47805 1.81525 6.29015 1.69038 6.06656C1.56551 5.84297 1.49997 5.59113 1.5 5.33503V5.17236" stroke="white" stroke-width="1.5" stroke-linecap="round" stroke-linejoin="round"/>
</svg>
