<svg width="26" height="24" viewBox="0 0 26 24" fill="none" xmlns="http://www.w3.org/2000/svg">
<path d="M24.3577 12.5953L22.7327 5.47922C22.4189 3.92672 21.2103 3 19.5 3H6.5C5.64688 3 4.92579 3.21984 4.36211 3.65344C3.79844 4.08703 3.42926 4.69922 3.26625 5.47641L1.64125 12.5953C1.63028 12.6462 1.62483 12.6981 1.625 12.75V18C1.625 18.7956 1.96741 19.5587 2.57691 20.1213C3.1864 20.6839 4.01305 21 4.875 21H21.125C21.987 21 22.8136 20.6839 23.4231 20.1213C24.0326 19.5587 24.375 18.7956 24.375 18V12.75C24.3748 12.698 24.3691 12.6462 24.3577 12.5953ZM4.85774 5.77969C4.85774 5.775 4.85774 5.77078 4.85774 5.76656C5.03801 4.90266 5.55903 4.50094 6.49746 4.50094H19.5C20.445 4.50094 20.9661 4.90172 21.1387 5.76234C21.1387 5.76844 21.1413 5.77453 21.1423 5.78062L22.5098 11.775C22.516 11.8023 22.5155 11.8306 22.5084 11.8577C22.5013 11.8848 22.4877 11.9101 22.4686 11.9317C22.4495 11.9534 22.4254 11.9708 22.3981 11.9828C22.3708 11.9948 22.341 12.001 22.3107 12.0009H16.25C16.0358 11.9999 15.8299 12.0775 15.6775 12.2165C15.5252 12.3556 15.4388 12.5447 15.4375 12.7425C15.4375 13.3392 15.1807 13.9115 14.7236 14.3335C14.2665 14.7554 13.6465 14.9925 13 14.9925C12.3535 14.9925 11.7336 14.7554 11.2764 14.3335C10.8193 13.9115 10.5625 13.3392 10.5625 12.7425C10.562 12.6445 10.5405 12.5476 10.4994 12.4572C10.4583 12.3669 10.3983 12.2849 10.3228 12.2159C10.2474 12.147 10.158 12.0924 10.0597 12.0554C9.9614 12.0183 9.85617 11.9995 9.75 12H3.68926C3.65903 12 3.62918 11.9938 3.60187 11.9819C3.57456 11.9699 3.5505 11.9525 3.53142 11.9308C3.51235 11.9092 3.49875 11.8839 3.49162 11.8567C3.48449 11.8296 3.484 11.8014 3.4902 11.7741L4.85774 5.77969Z" fill="#DE4F3F"/>
<path d="M18.6875 7.5H7.3125C7.09702 7.5 6.89035 7.42098 6.73798 7.28033C6.58561 7.13968 6.5 6.94891 6.5 6.75C6.5 6.55109 6.58561 6.36032 6.73798 6.21967C6.89035 6.07902 7.09702 6 7.3125 6H18.6875C18.903 6 19.1097 6.07902 19.262 6.21967C19.4144 6.36032 19.5 6.55109 19.5 6.75C19.5 6.94891 19.4144 7.13968 19.262 7.28033C19.1097 7.42098 18.903 7.5 18.6875 7.5Z" fill="#DE4F3F"/>
<path d="M19.5 10.5H6.5C6.28452 10.5 6.07785 10.421 5.92548 10.2803C5.77311 10.1397 5.6875 9.94891 5.6875 9.75C5.6875 9.55109 5.77311 9.36032 5.92548 9.21967C6.07785 9.07902 6.28452 9 6.5 9H19.5C19.7155 9 19.9222 9.07902 20.0745 9.21967C20.2269 9.36032 20.3125 9.55109 20.3125 9.75C20.3125 9.94891 20.2269 10.1397 20.0745 10.2803C19.9222 10.421 19.7155 10.5 19.5 10.5Z" fill="#DE4F3F"/>
</svg>
