<svg width="18" height="18" viewBox="0 0 18 18" fill="none" xmlns="http://www.w3.org/2000/svg">
<path d="M9 0C4.03594 0 0 4.03594 0 9C0 13.9641 4.03594 18 9 18C13.9641 18 18 13.9641 18 9C18 4.03594 13.9641 0 9 0ZM9 16.5C4.86563 16.5 1.5 13.1344 1.5 9C1.5 4.86563 4.86563 1.5 9 1.5C13.1344 1.5 16.5 4.86563 16.5 9C16.5 13.1344 13.1344 16.5 9 16.5Z" fill="#DE4F3F"/>
<path d="M10.5235 4.02189C10.1485 3.84376 9.59071 3.74533 9.00009 3.75001C8.15165 3.73595 7.33602 4.03126 6.71259 4.58908C6.1454 5.09532 5.78446 5.76095 5.71884 6.4172C5.68134 6.77813 5.94384 7.10157 6.30477 7.13438C6.66571 7.17188 6.98915 6.90938 7.02196 6.54845C7.0829 5.92501 7.81884 5.03907 8.98134 5.06251H9.00009C9.43603 5.05782 9.79227 5.13282 9.95165 5.20782C10.9688 5.68595 10.9688 6.32813 10.9688 6.53907C10.9688 7.38751 10.4579 7.77188 9.55321 8.37657C8.5829 9.02813 8.10946 9.84844 8.10946 10.875C8.10946 11.2359 8.40478 11.5312 8.76571 11.5312C9.12665 11.5312 9.42196 11.2359 9.42196 10.875C9.42196 10.4438 9.52509 9.975 10.2845 9.46875C11.1751 8.87344 12.2813 8.13282 12.2813 6.54376C12.2813 5.45626 11.6579 4.56095 10.5235 4.02189Z" fill="#DE4F3F"/>
<path d="M8.71875 14.25C9.23652 14.25 9.65625 13.8303 9.65625 13.3125C9.65625 12.7947 9.23652 12.375 8.71875 12.375C8.20098 12.375 7.78125 12.7947 7.78125 13.3125C7.78125 13.8303 8.20098 14.25 8.71875 14.25Z" fill="#DE4F3F"/>
</svg>
