<svg width="24" height="25" viewBox="0 0 24 25" fill="none" xmlns="http://www.w3.org/2000/svg">
<path d="M16.3748 3.92221C17.5342 3.92567 18.6451 4.38775 19.4648 5.20753C20.2846 6.02731 20.7467 7.13818 20.7502 8.29752V17.0472C20.7467 18.2065 20.2846 19.3174 19.4648 20.1372C18.6451 20.957 17.5342 21.4191 16.3748 21.4225H7.62516C6.46582 21.4191 5.35495 20.957 4.53517 20.1372C3.71539 19.3174 3.25331 18.2065 3.24984 17.0472V8.29752C3.25331 7.13818 3.71539 6.02731 4.53517 5.20753C5.35495 4.38775 6.46582 3.92567 7.62516 3.92221H16.3748ZM16.3748 2.17236H7.62516C4.25625 2.17236 1.5 4.92861 1.5 8.29752V17.0472C1.5 20.4161 4.25625 23.1724 7.62516 23.1724H16.3748C19.7437 23.1724 22.5 20.4161 22.5 17.0472V8.29752C22.5 4.92861 19.7437 2.17236 16.3748 2.17236Z" fill="white"/>
<path d="M17.6873 8.29752C17.4278 8.29752 17.174 8.22054 16.9582 8.07632C16.7423 7.9321 16.5741 7.72712 16.4748 7.48729C16.3754 7.24746 16.3494 6.98356 16.4001 6.72896C16.4507 6.47436 16.5757 6.2405 16.7593 6.05694C16.9428 5.87339 17.1767 5.74838 17.4313 5.69774C17.6859 5.6471 17.9498 5.67309 18.1896 5.77243C18.4294 5.87177 18.6344 6.03999 18.7786 6.25583C18.9229 6.47167 18.9998 6.72543 18.9998 6.98502C19.0002 7.15748 18.9665 7.32832 18.9007 7.48773C18.8349 7.64714 18.7382 7.79197 18.6162 7.91392C18.4943 8.03587 18.3495 8.13254 18.1901 8.19837C18.0306 8.26419 17.8598 8.29789 17.6873 8.29752Z" fill="white"/>
<path d="M12 9.17221C12.6923 9.17221 13.369 9.37749 13.9446 9.76209C14.5202 10.1467 14.9688 10.6933 15.2337 11.3329C15.4986 11.9725 15.568 12.6762 15.4329 13.3552C15.2978 14.0342 14.9645 14.6578 14.475 15.1473C13.9855 15.6369 13.3618 15.9702 12.6828 16.1053C12.0039 16.2403 11.3001 16.171 10.6605 15.9061C10.021 15.6412 9.47433 15.1925 9.08973 14.6169C8.70512 14.0413 8.49984 13.3646 8.49984 12.6724C8.50084 11.7444 8.86992 10.8547 9.52611 10.1985C10.1823 9.54228 11.072 9.1732 12 9.17221ZM12 7.42236C10.9616 7.42236 9.94661 7.73027 9.08326 8.30715C8.2199 8.88402 7.54699 9.70396 7.14963 10.6633C6.75227 11.6226 6.6483 12.6782 6.85088 13.6966C7.05345 14.715 7.55346 15.6504 8.28769 16.3847C9.02192 17.1189 9.95738 17.6189 10.9758 17.8215C11.9942 18.0241 13.0498 17.9201 14.0091 17.5227C14.9684 17.1254 15.7883 16.4525 16.3652 15.5891C16.9421 14.7257 17.25 13.7107 17.25 12.6724C17.25 11.28 16.6969 9.94462 15.7123 8.96005C14.7277 7.97549 13.3924 7.42236 12 7.42236Z" fill="white"/>
</svg>
