<svg width="41" height="40" viewBox="0 0 41 40" fill="none" xmlns="http://www.w3.org/2000/svg">
<g clip-path="url(#clip0_2530_4684)">
<path d="M7.54048 10.2825C7.54048 10.0448 7.68676 9.83155 7.90857 9.74597L17.3944 6.08597C19.2345 5.37598 19.8634 5.15382 20.4985 5.15382C21.1336 5.15382 21.7625 5.37598 23.6026 6.08597L33.0884 9.74597C33.3102 9.83155 33.4565 10.0448 33.4565 10.2825V16.2301C33.4565 24.5866 28.3147 32.0819 20.5183 35.0901C20.5055 35.095 20.4914 35.095 20.4787 35.0901C12.6823 32.0819 7.54048 24.5866 7.54048 16.2301V10.2825Z" stroke="#DE4F3F" stroke-width="2.46376"/>
<path d="M16.1183 13.4229L27.0684 13.4229" stroke="#DE4F3F" stroke-width="2.46376" stroke-linecap="round"/>
<path d="M16.1187 19.9927L21.5938 19.9927" stroke="#DE4F3F" stroke-width="2.46376" stroke-linecap="round"/>
</g>
<defs>
<clipPath id="clip0_2530_4684">
<rect width="39.4202" height="39.4202" fill="white" transform="translate(0.789062 0.282715)"/>
</clipPath>
</defs>
</svg>
