<svg width="24" height="25" viewBox="0 0 24 25" fill="none" xmlns="http://www.w3.org/2000/svg">
<g clip-path="url(#clip0_3177_67560)">
<path d="M23.3725 10.8819L20.8309 8.34031C20.6232 8.13838 20.3444 8.02631 20.0548 8.02835C19.7652 8.03039 19.488 8.14637 19.2832 8.35121C19.0784 8.55606 18.9625 8.83328 18.9606 9.12292C18.9586 9.41256 19.0708 9.69132 19.2728 9.89891L20.6396 11.2658H15.3568C15.2095 11.2615 15.0627 11.2868 14.9253 11.3402C14.7879 11.3936 14.6626 11.4741 14.5569 11.5768C14.4511 11.6795 14.3671 11.8024 14.3096 11.9382C14.2522 12.074 14.2227 12.2199 14.2227 12.3673C14.2227 12.5148 14.2522 12.6607 14.3096 12.7965C14.3671 12.9323 14.4511 13.0552 14.5569 13.1579C14.6626 13.2606 14.7879 13.341 14.9253 13.3945C15.0627 13.4479 15.2095 13.4732 15.3568 13.4689H20.6889L19.322 14.8362C19.2197 14.9386 19.1385 15.06 19.0832 15.1937C19.0278 15.3274 18.9993 15.4706 18.9993 15.6153C18.9993 15.76 19.0278 15.9033 19.0832 16.0369C19.1385 16.1706 19.2197 16.2921 19.322 16.3944C19.5286 16.601 19.8088 16.7171 20.101 16.7171C20.2457 16.7171 20.389 16.6886 20.5227 16.6332C20.6563 16.5778 20.7778 16.4967 20.8801 16.3944L23.3725 13.902C23.5708 13.7037 23.7282 13.4682 23.8356 13.209C23.9429 12.9498 23.9982 12.672 23.9982 12.3915C23.9982 12.1109 23.9429 11.8332 23.8356 11.574C23.7282 11.3148 23.5708 11.0793 23.3725 10.8809V10.8819Z" fill="#DE4F3F"/>
<path d="M17.2864 14.8809C17.006 14.8857 16.7374 14.994 16.5321 15.185C16.3268 15.376 16.1995 15.6362 16.1745 15.9154C16.1337 16.4521 16.0929 16.6326 16.0423 17.0325C15.9688 17.5678 15.7218 18.0642 15.3392 18.4457C14.9571 18.8335 14.4592 19.0865 13.9208 19.1667L13.8889 19.1709C13.5608 19.2178 13.2561 19.259 12.9387 19.2965C13.0006 18.0646 13.04 16.6406 13.0498 15.2273C13.0676 12.8901 13.0029 10.4789 12.875 8.92262C12.7791 7.83439 12.4561 6.77837 11.9267 5.82277C11.4031 4.88152 10.7225 4.14184 10.009 3.75043L9.987 3.73871C9.36497 3.3984 8.8381 3.11012 7.92872 2.72668C8.31591 2.71402 8.69278 2.70605 9.19435 2.70605C11.6661 2.7159 12.5408 2.86449 13.7562 3.04777L13.7862 3.05246C14.3217 3.14378 14.8136 3.40492 15.1892 3.7973C15.5708 4.18628 15.8198 4.6858 15.9008 5.22465C16.0306 6.16637 16.1351 7.24027 16.1979 8.79043C16.2209 9.37449 16.7136 9.85121 17.3126 9.86527C17.9286 9.87934 18.4165 9.41105 18.3884 8.82418C18.3162 7.2998 18.1967 6.17105 18.0406 5.15199C17.8873 4.15496 17.3787 3.17855 16.6297 2.39855C15.8806 1.61855 14.9276 1.07715 13.9348 0.903242L13.9043 0.898086C12.6922 0.696523 11.7387 0.516055 9.1981 0.50293C6.65794 0.51793 5.7645 0.695586 4.55044 0.896211L4.51997 0.901836C3.52716 1.07527 2.57185 1.61809 1.82185 2.39668C1.07185 3.17527 0.56419 4.15309 0.410909 5.15012C0.183565 6.61777 0.0190337 8.91559 0.00169 11.1604C-0.0156538 13.4053 0.101534 15.7003 0.30544 17.1632C0.396265 17.7865 0.613009 18.3847 0.942471 18.9215C1.03388 19.109 1.13231 19.2965 1.23778 19.4756C1.78481 20.4089 2.48747 21.1659 3.21122 21.5906L3.23325 21.6037C4.11544 22.1193 4.81482 22.5361 6.63778 23.3146C8.4556 24.0834 9.12216 24.2381 9.972 24.4396L9.9931 24.4448C10.6878 24.6065 11.3436 24.3834 11.8517 23.8279C12.3439 23.2898 12.6762 22.4648 12.7845 21.5034C13.2303 21.4504 13.6283 21.3904 14.059 21.3234L14.09 21.3182C15.102 21.1603 16.0714 20.6376 16.8233 19.8768C17.5751 19.1161 18.0739 18.1523 18.2112 17.1581C18.2703 16.7278 18.3162 16.5164 18.3622 15.9637C18.4123 15.3623 17.9182 14.8682 17.2864 14.8809Z" fill="#DE4F3F"/>
</g>
<defs>
<clipPath id="clip0_3177_67560">
<rect width="24" height="24" fill="white" transform="translate(0 0.5)"/>
</clipPath>
</defs>
</svg>
