<svg width="24" height="25" viewBox="0 0 24 25" fill="none" xmlns="http://www.w3.org/2000/svg">
<path d="M20.8205 2.17236H3.29437C2.33672 2.17236 1.5 2.86143 1.5 3.80783V21.3728C1.5 22.3244 2.33672 23.1724 3.29437 23.1724H20.8153C21.7781 23.1724 22.5 22.3188 22.5 21.3728V3.80783C22.5056 2.86143 21.7781 2.17236 20.8205 2.17236ZM8.00953 19.6769H5.00109V10.323H8.00953V19.6769ZM6.60938 8.9008H6.58781C5.625 8.9008 5.00156 8.18408 5.00156 7.28689C5.00156 6.3733 5.64141 5.67346 6.62578 5.67346C7.61016 5.67346 8.2125 6.36814 8.23406 7.28689C8.23359 8.18408 7.61016 8.9008 6.60938 8.9008ZM19.0045 19.6769H15.9961V14.5624C15.9961 13.3371 15.5583 12.4999 14.4698 12.4999C13.6383 12.4999 13.1461 13.0624 12.9272 13.6103C12.8452 13.8072 12.8231 14.0753 12.8231 14.3491V19.6769H9.81469V10.323H12.8231V11.6247C13.2609 11.0013 13.9448 10.1041 15.5363 10.1041C17.5111 10.1041 19.005 11.4058 19.005 14.2122L19.0045 19.6769Z" fill="white"/>
</svg>
