<svg width="24" height="24" viewBox="0 0 24 24" fill="none" xmlns="http://www.w3.org/2000/svg">
<g clip-path="url(#clip0_2297_66263)">
<path d="M6.24978 9.27176V8.71875C6.24978 5.40504 8.93607 2.71875 12.2498 2.71875C15.5635 2.71875 18.2498 5.40504 18.2498 8.71875V9.94624C18.2498 11.1612 18.7324 12.3264 19.5915 13.1855L19.9229 13.5169C21.5193 15.1133 20.6736 17.8453 18.4546 18.2606C14.1884 19.0591 9.81114 19.0591 5.54499 18.2606C3.32593 17.8453 2.48026 15.1133 4.07662 13.5169L4.78466 12.8089C5.72276 11.8708 6.24978 10.5984 6.24978 9.27176Z" stroke="#626477" stroke-width="1.5"/>
<path d="M9.25 18.3125V18.5313C9.25 20.05 10.4812 21.2813 12 21.2813C13.5188 21.2813 14.75 20.05 14.75 18.5313V18.3125" stroke="#626477" stroke-width="1.5"/>
</g>
<defs>
<clipPath id="clip0_2297_66263">
<rect width="24" height="24" fill="white"/>
</clipPath>
</defs>
</svg>
