<svg width="16" height="17" viewBox="0 0 16 17" fill="none" xmlns="http://www.w3.org/2000/svg">
<path d="M1.5 4.76318C1.5 10.2859 5.97733 14.7632 11.5 14.7632H13C13.3978 14.7632 13.7794 14.6051 14.0607 14.3238C14.342 14.0425 14.5 13.661 14.5 13.2632V12.3485C14.5 12.0045 14.266 11.7045 13.932 11.6212L10.9833 10.8839C10.69 10.8105 10.382 10.9205 10.2013 11.1619L9.55467 12.0239C9.36667 12.2745 9.042 12.3852 8.748 12.2772C7.65659 11.8759 6.66544 11.2422 5.84319 10.42C5.02094 9.59775 4.38725 8.6066 3.986 7.51518C3.878 7.22118 3.98867 6.89652 4.23933 6.70852L5.10133 6.06185C5.34333 5.88118 5.45267 5.57252 5.37933 5.27985L4.642 2.33118C4.60143 2.16898 4.50781 2.02499 4.37604 1.92207C4.24426 1.81916 4.08187 1.76324 3.91467 1.76318H3C2.60218 1.76318 2.22064 1.92122 1.93934 2.20252C1.65804 2.48383 1.5 2.86536 1.5 3.26318V4.76318Z" stroke="white" stroke-width="1.5" stroke-linecap="round" stroke-linejoin="round"/>
</svg>
