<svg width="113" height="112" viewBox="0 0 113 112" fill="none" xmlns="http://www.w3.org/2000/svg">
<rect x="25.6133" y="26.4644" width="55.3721" height="9.98514" rx="3.17709" fill="url(#paint0_linear_4035_5264)"/>
<rect width="55.3721" height="9.98514" rx="3.17709" transform="matrix(1 0 0 -1 25.6133 99.5371)" fill="url(#paint1_linear_4035_5264)"/>
<path fill-rule="evenodd" clip-rule="evenodd" d="M43.7143 60.6765C44.0849 61.0307 44.3426 61.277 44.4502 61.4116C45.358 62.5463 45.3902 63.8756 44.4502 64.8156C44.3668 64.899 44.2468 65.0139 44.095 65.1593C41.7682 67.387 31.9688 76.7694 31.9688 89.5515H53.3017H53.5276H74.8606C74.8606 76.7694 65.0612 67.387 62.7343 65.1592C62.5825 65.0139 62.4625 64.899 62.3791 64.8156C61.4391 63.8756 61.4714 62.5463 62.3791 61.4116C62.4868 61.277 62.7445 61.0307 63.115 60.6765C65.8693 58.0441 74.8606 49.4501 74.8606 36.4487H53.5276H53.3017H31.9688C31.9688 49.4501 40.9601 58.0441 43.7143 60.6765Z" fill="url(#paint2_linear_4035_5264)"/>
<path fill-rule="evenodd" clip-rule="evenodd" d="M42.4576 89.552C42.8129 86.8516 44.944 80.8132 50.6195 77.0813C51.3081 76.6285 51.7619 75.8786 51.7619 75.0545V65.1353C51.7619 64.4982 51.4938 63.8941 51.0351 63.4519C48.2082 60.7266 43.4551 55.417 42.4576 51.4269C42.2307 50.2922 42.6391 47.6144 46.0886 45.9805H53.3498H53.3505H60.6117C64.0611 47.6144 64.4696 50.2922 64.2426 51.4269C63.2451 55.417 58.4921 60.7266 55.6651 63.4519C55.2064 63.8941 54.9383 64.4982 54.9383 65.1353V75.0545C54.9383 75.8786 55.3921 76.6285 56.0807 77.0813C61.7562 80.8132 63.8873 86.8516 64.2426 89.552H53.3505H53.3498H42.4576Z" fill="url(#paint3_linear_4035_5264)"/>
<path d="M92.4088 14.9528L75.8483 14.7543C75.5299 14.7505 75.2469 14.957 75.1534 15.2614L68.3131 37.5291C68.1724 37.9872 68.5115 38.452 68.9908 38.4578L74.1256 38.5193C74.5867 38.5248 74.9231 38.9573 74.815 39.4055L69.9042 59.7639C69.7236 60.5125 70.6881 60.9815 71.1654 60.3774L94.5148 30.8255C94.8843 30.3579 94.5561 29.6697 93.9601 29.6625L88.1149 29.5925C87.5995 29.5863 87.2584 29.0552 87.4671 28.5839L93.0567 15.9614C93.2654 15.4901 92.9242 14.959 92.4088 14.9528Z" fill="url(#paint4_linear_4035_5264)"/>
<path d="M29.711 2.35156L31.6446 6.74802L36.0411 8.68168L31.6446 10.6153L29.711 15.0118L27.7773 10.6153L23.3809 8.68168L27.7773 6.74802L29.711 2.35156Z" fill="#FFA69C"/>
<path d="M99.527 55.9712L102.655 63.0831L109.767 66.2111L102.655 69.3391L99.527 76.451L96.399 69.3391L89.2871 66.2111L96.399 63.0831L99.527 55.9712Z" fill="#FFA69C"/>
<path d="M16.6771 91.7178L18.7245 96.3728L23.3795 98.4202L18.7245 100.468L16.6771 105.123L14.6297 100.468L9.97461 98.4202L14.6297 96.3728L16.6771 91.7178Z" fill="#FFA69C"/>
<defs>
<linearGradient id="paint0_linear_4035_5264" x1="29.8337" y1="24.9315" x2="55.0978" y2="54.466" gradientUnits="userSpaceOnUse">
<stop stop-color="#FF4C54"/>
<stop offset="1" stop-color="#F14951"/>
</linearGradient>
<linearGradient id="paint1_linear_4035_5264" x1="4.22043" y1="-1.53281" x2="29.4845" y2="28.0016" gradientUnits="userSpaceOnUse">
<stop stop-color="#FF4C54"/>
<stop offset="1" stop-color="#F14951"/>
</linearGradient>
<linearGradient id="paint2_linear_4035_5264" x1="64.4213" y1="34.4063" x2="40.5935" y2="91.5943" gradientUnits="userSpaceOnUse">
<stop stop-color="#FFE2B7"/>
<stop offset="0.170793" stop-color="#FFF4E2"/>
<stop offset="1" stop-color="#FFFAE8"/>
</linearGradient>
<linearGradient id="paint3_linear_4035_5264" x1="44.0745" y1="39.2919" x2="67.4468" y2="41.7669" gradientUnits="userSpaceOnUse">
<stop stop-color="#FBAA4A"/>
<stop offset="1" stop-color="#C35C50"/>
</linearGradient>
<linearGradient id="paint4_linear_4035_5264" x1="74.2072" y1="31.3958" x2="97.1073" y2="29.7202" gradientUnits="userSpaceOnUse">
<stop stop-color="#FFD869"/>
<stop offset="1" stop-color="#FFB300"/>
</linearGradient>
</defs>
</svg>
