<svg width="41" height="40" viewBox="0 0 41 40" fill="none" xmlns="http://www.w3.org/2000/svg">
<path d="M23.3437 34.5035L23.3437 34.5035C21.5618 35.7193 19.2677 35.7193 17.4859 34.5035L17.4859 34.5035C17.4683 34.4915 17.4486 34.4779 17.3971 34.4421L16.6884 35.4622L17.3971 34.4421L15.6305 33.2148C14.0177 32.0944 11.9064 32.0944 10.2935 33.2148C8.84767 34.2193 6.7514 33.2061 6.7514 31.1716L6.7514 15.5671C6.7514 13.1415 6.75276 11.4112 6.88269 10.0681C7.01088 8.74296 7.25475 7.93003 7.65497 7.29843C8.05957 6.65993 8.58173 6.11701 9.18767 5.70006C9.77836 5.29361 10.5377 5.04434 11.7944 4.91233C13.0741 4.7779 14.7257 4.7763 17.0565 4.7763L23.7731 4.7763C26.1039 4.7763 27.7555 4.7779 29.0352 4.91233C30.2918 5.04434 31.0512 5.29361 31.6419 5.70006C32.2478 6.11701 32.77 6.65993 33.1746 7.29843C33.5748 7.93003 33.8187 8.74296 33.9469 10.0681C34.0768 11.4112 34.0781 13.1415 34.0781 15.5671V31.1716C34.0781 33.2061 31.9819 34.2193 30.536 33.2148C28.9232 32.0944 26.8119 32.0944 25.199 33.2148L23.4325 34.4421L24.1411 35.4622L23.4325 34.4421C23.3809 34.4779 23.3613 34.4915 23.3437 34.5035Z" stroke="white" stroke-width="2.48425"/>
<path d="M18.0731 12.7866C18.0731 13.9648 17.0669 15.0003 15.7247 15.0003C14.3826 15.0003 13.3764 13.9648 13.3764 12.7866C13.3764 11.6084 14.3826 10.5729 15.7247 10.5729C17.0669 10.5729 18.0731 11.6084 18.0731 12.7866Z" stroke="white" stroke-width="2.48425"/>
<path d="M27.4534 20.7805C27.4534 21.9587 26.4472 22.9942 25.1051 22.9942C23.763 22.9942 22.7568 21.9587 22.7568 20.7805C22.7568 19.6023 23.763 18.5668 25.1051 18.5668C26.4472 18.5668 27.4534 19.6023 27.4534 20.7805Z" stroke="white" stroke-width="2.48425"/>
<path d="M26.1841 9.84019L14.9593 23.7264" stroke="white" stroke-width="2.48425" stroke-linecap="round"/>
</svg>
