<svg width="39" height="40" viewBox="0 0 39 40" fill="none" xmlns="http://www.w3.org/2000/svg">
<g clip-path="url(#clip0_2530_15490)">
<path d="M22.4609 34.0689L22.4609 34.0689C22.4104 34.104 22.391 34.1174 22.3738 34.1292C20.6255 35.3221 18.3745 35.3221 16.6262 34.1292C16.609 34.1175 16.5896 34.104 16.5391 34.0689L16.5391 34.0689L14.8058 32.8648C13.2233 31.7654 11.1517 31.7654 9.56921 32.8648C8.15057 33.8503 6.09375 32.8562 6.09375 30.8599L6.09375 15.5492C6.09375 13.1692 6.09508 11.4714 6.22257 10.1536C6.34834 8.85343 6.58762 8.0558 6.98032 7.43608C7.37729 6.8096 7.88963 6.2769 8.48417 5.8678C9.06374 5.46899 9.80883 5.22442 11.0418 5.09489C12.2974 4.96299 13.918 4.96143 16.2049 4.96143L22.7951 4.96143C25.082 4.96143 26.7025 4.963 27.9582 5.09489C29.1912 5.22442 29.9362 5.469 30.5158 5.8678C31.1103 6.2769 31.6227 6.8096 32.0197 7.43608C32.4124 8.0558 32.6516 8.85344 32.7774 10.1536C32.9049 11.4714 32.9062 13.1692 32.9062 15.5492V30.8599C32.9062 32.8562 30.8494 33.8503 29.4308 32.8648C27.8483 31.7654 25.7767 31.7654 24.1942 32.8648L22.4609 34.0689Z" stroke="#DE4F3F" stroke-width="2.4375"/>
<path d="M17.202 12.8209C17.202 13.977 16.2148 14.9929 14.8979 14.9929C13.581 14.9929 12.5937 13.977 12.5937 12.8209C12.5937 11.6649 13.581 10.6489 14.8979 10.6489C16.2148 10.6489 17.202 11.6649 17.202 12.8209Z" stroke="#DE4F3F" stroke-width="2.4375"/>
<path d="M26.4052 20.6642C26.4052 21.8203 25.4179 22.8362 24.101 22.8362C22.7841 22.8362 21.7969 21.8203 21.7969 20.6642C21.7969 19.5081 22.7841 18.4922 24.101 18.4922C25.4179 18.4922 26.4052 19.5081 26.4052 20.6642Z" stroke="#DE4F3F" stroke-width="2.4375"/>
<path d="M25.1609 9.93025L14.1473 23.5551" stroke="#DE4F3F" stroke-width="2.4375" stroke-linecap="round"/>
</g>
<defs>
<clipPath id="clip0_2530_15490">
<rect width="39" height="39" fill="white" transform="translate(0 0.492676)"/>
</clipPath>
</defs>
</svg>
