<svg width="25" height="18" viewBox="0 0 25 18" fill="none" xmlns="http://www.w3.org/2000/svg">
<path d="M23.0488 10.1304H20.6964C20.3632 10.1304 20.0838 10.0177 19.8584 9.79226C19.6329 9.56682 19.5202 9.28747 19.5202 8.95422C19.5202 8.62097 19.6329 8.34162 19.8584 8.11619C20.0838 7.89075 20.3632 7.77803 20.6964 7.77803H23.0488C23.382 7.77803 23.6614 7.89075 23.8868 8.11619C24.1123 8.34162 24.225 8.62097 24.225 8.95422C24.225 9.28747 24.1123 9.56682 23.8868 9.79226C23.6614 10.0177 23.382 10.1304 23.0488 10.1304ZM17.8736 14.5999C18.0696 14.3255 18.3244 14.1687 18.6381 14.1295C18.9517 14.0903 19.2458 14.1687 19.5202 14.3647L21.4021 15.7761C21.6766 15.9722 21.8334 16.227 21.8726 16.5406C21.9118 16.8543 21.8334 17.1483 21.6374 17.4228C21.4413 17.6972 21.1865 17.8541 20.8728 17.8933C20.5592 17.9325 20.2651 17.8541 19.9907 17.658L18.1088 16.2466C17.8343 16.0506 17.6775 15.7957 17.6383 15.4821C17.5991 15.1684 17.6775 14.8744 17.8736 14.5999ZM21.4021 2.13232L19.5202 3.54374C19.2458 3.73978 18.9517 3.81819 18.6381 3.77898C18.3244 3.73978 18.0696 3.58295 17.8736 3.30851C17.6775 3.03406 17.5991 2.74001 17.6383 2.42636C17.6775 2.11271 17.8343 1.85787 18.1088 1.66184L19.9907 0.250411C20.2651 0.054379 20.5592 -0.0240337 20.8728 0.0151727C21.1865 0.054379 21.4413 0.211204 21.6374 0.485649C21.8334 0.760093 21.9118 1.05414 21.8726 1.36779C21.8334 1.68144 21.6766 1.93628 21.4021 2.13232ZM4.22974 12.4828H3.05355C2.40665 12.4828 1.85286 12.2525 1.39218 11.7918C0.931509 11.3311 0.701172 10.7773 0.701172 10.1304V7.77803C0.701172 7.13113 0.931509 6.57734 1.39218 6.11666C1.85286 5.65599 2.40665 5.42565 3.05355 5.42565H7.75831L11.8456 2.95565C12.2376 2.72041 12.6346 2.72041 13.0365 2.95565C13.4383 3.19089 13.6393 3.53394 13.6393 3.98482V13.9236C13.6393 14.3745 13.4383 14.7176 13.0365 14.9528C12.6346 15.188 12.2376 15.188 11.8456 14.9528L7.75831 12.4828H6.58212V16.0114C6.58212 16.3446 6.46941 16.624 6.24397 16.8494C6.01853 17.0748 5.73919 17.1876 5.40593 17.1876C5.07268 17.1876 4.79333 17.0748 4.5679 16.8494C4.34246 16.624 4.22974 16.3446 4.22974 16.0114V12.4828ZM14.8155 12.8945V5.01398C15.3447 5.48446 15.7711 6.05785 16.0946 6.73416C16.418 7.41047 16.5797 8.15049 16.5797 8.95422C16.5797 9.75795 16.418 10.498 16.0946 11.1743C15.7711 11.8506 15.3447 12.424 14.8155 12.8945Z" fill="#DE4F3F"/>
</svg>
