<svg width="172" height="172" viewBox="0 0 172 172" fill="none" xmlns="http://www.w3.org/2000/svg">
<g clip-path="url(#clip0_2052_93491)">
<ellipse cx="86.0014" cy="86.0015" rx="86.4545" ry="86.1538" fill="url(#paint0_linear_2052_93491)" fill-opacity="0.15"/>
<ellipse cx="86.001" cy="85.9985" rx="65.3116" ry="65.0844" fill="url(#paint1_linear_2052_93491)" fill-opacity="0.3"/>
<ellipse cx="86.0007" cy="85.9981" rx="50.7331" ry="50.5567" fill="url(#paint2_linear_2052_93491)"/>
<path d="M134.83 85.9981C134.83 112.862 112.975 134.651 86.0007 134.651C59.0269 134.651 37.1717 112.862 37.1717 85.9981C37.1717 59.1342 59.0269 37.3455 86.0007 37.3455C112.975 37.3455 134.83 59.1342 134.83 85.9981Z" stroke="white" stroke-opacity="0.2" stroke-width="3.80816"/>
<g filter="url(#filter0_d_2052_93491)">
<path d="M110.705 64.4512C112.913 66.5592 113.112 70.1905 111.149 72.5619L82.6155 107.032C81.6002 108.259 80.145 108.961 78.6168 108.961C77.0887 108.961 75.6334 108.259 74.6182 107.032L60.3514 89.7972C58.3884 87.4257 58.5873 83.7944 60.7957 81.6864C63.0041 79.5784 66.3857 79.7921 68.3487 82.1635L78.6168 94.5681L103.152 64.9283C105.115 62.5568 108.496 62.3432 110.705 64.4512Z" fill="white"/>
</g>
</g>
<defs>
<filter id="filter0_d_2052_93491" x="59" y="63" width="53.5" height="49.7687" filterUnits="userSpaceOnUse" color-interpolation-filters="sRGB">
<feFlood flood-opacity="0" result="BackgroundImageFix"/>
<feColorMatrix in="SourceAlpha" type="matrix" values="0 0 0 0 0 0 0 0 0 0 0 0 0 0 0 0 0 0 127 0" result="hardAlpha"/>
<feOffset dy="3.80816"/>
<feComposite in2="hardAlpha" operator="out"/>
<feColorMatrix type="matrix" values="0 0 0 0 0.788589 0 0 0 0 0.154901 0 0 0 0 0 0 0 0 1 0"/>
<feBlend mode="normal" in2="BackgroundImageFix" result="effect1_dropShadow_2052_93491"/>
<feBlend mode="normal" in="SourceGraphic" in2="effect1_dropShadow_2052_93491" result="shape"/>
</filter>
<linearGradient id="paint0_linear_2052_93491" x1="62.9112" y1="-0.152397" x2="62.9112" y2="172.155" gradientUnits="userSpaceOnUse">
<stop stop-color="#FF6130"/>
<stop offset="1" stop-color="#FD403A"/>
</linearGradient>
<linearGradient id="paint1_linear_2052_93491" x1="68.5577" y1="20.914" x2="68.5577" y2="151.083" gradientUnits="userSpaceOnUse">
<stop stop-color="#FF6130"/>
<stop offset="1" stop-color="#FD403A"/>
</linearGradient>
<linearGradient id="paint2_linear_2052_93491" x1="72.4509" y1="35.4414" x2="72.4509" y2="136.555" gradientUnits="userSpaceOnUse">
<stop stop-color="#FF6130"/>
<stop offset="1" stop-color="#FD403A"/>
</linearGradient>
<clipPath id="clip0_2052_93491">
<rect width="172" height="172" fill="white"/>
</clipPath>
</defs>
</svg>
