<svg width="41" height="41" viewBox="0 0 41 41" fill="none" xmlns="http://www.w3.org/2000/svg">
<g clip-path="url(#clip0_2305_75381)">
<path d="M7.29828 10.979C7.29828 10.7393 7.44578 10.5243 7.66943 10.438L17.2341 6.74753C19.0895 6.03164 19.7237 5.80763 20.364 5.80763C21.0044 5.80763 21.6386 6.03164 23.494 6.74753L33.0587 10.438C33.2823 10.5243 33.4298 10.7393 33.4298 10.979V16.976C33.4298 25.402 28.2452 32.9596 20.384 35.9928C20.3712 35.9977 20.3569 35.9977 20.3441 35.9928C12.4829 32.9596 7.29828 25.402 7.29828 16.976V10.979Z" stroke="white" stroke-width="2.48425"/>
<path d="M15.3955 18.4115L18.7078 21.7238L25.3325 15.0991" stroke="white" stroke-width="2.48425" stroke-linecap="round" stroke-linejoin="round"/>
</g>
<defs>
<clipPath id="clip0_2305_75381">
<rect width="39.748" height="39.748" fill="white" transform="translate(0.490234 0.89624)"/>
</clipPath>
</defs>
</svg>
