<svg width="41" height="41" viewBox="0 0 41 41" fill="none" xmlns="http://www.w3.org/2000/svg">
<path d="M16.7619 33.4639L28.3141 19.593H20.861L22.3517 7.7509L11.876 22.9054H18.2525L16.7619 33.4639ZM15.3955 25.3898H9.47444C8.9811 25.3898 8.61623 25.169 8.37983 24.7273C8.14343 24.2856 8.17705 23.8578 8.4807 23.4437L22.4759 3.23767C22.6967 2.93402 22.9727 2.72699 23.304 2.61658C23.6352 2.50616 23.9665 2.51997 24.2977 2.65798C24.629 2.796 24.8912 3.01918 25.0844 3.32752C25.2777 3.63585 25.3467 3.96475 25.2915 4.31422L23.6766 17.1086H30.9641C31.4985 17.1086 31.8737 17.3433 32.0895 17.8125C32.3054 18.2818 32.2477 18.7235 31.9164 19.1375L16.5548 37.5631C16.3218 37.8365 16.0358 38.0153 15.6969 38.0994C15.3579 38.1835 15.0366 38.1531 14.733 38.0082C14.4293 37.8633 14.1878 37.6408 14.0084 37.3406C13.829 37.0404 13.7668 36.7143 13.8221 36.3623L15.3955 25.3898Z" fill="white"/>
</svg>
