<svg width="24" height="25" viewBox="0 0 24 25" fill="none" xmlns="http://www.w3.org/2000/svg">
<path d="M19.3233 6.23455C19.1715 6.15606 19.0236 6.07001 18.8804 5.97674C18.4638 5.70133 18.0818 5.37681 17.7427 5.01018C16.8943 4.03939 16.5774 3.05455 16.4607 2.36502H16.4654C16.3679 1.79268 16.4082 1.42236 16.4143 1.42236H12.5499V16.3652C12.5499 16.5658 12.5499 16.7641 12.5415 16.96C12.5415 16.9844 12.5391 17.0069 12.5377 17.0331C12.5377 17.0439 12.5377 17.0552 12.5354 17.0664C12.5354 17.0692 12.5354 17.0721 12.5354 17.0749C12.4946 17.611 12.3228 18.1289 12.0349 18.5831C11.747 19.0372 11.3519 19.4136 10.8844 19.6792C10.3972 19.9564 9.8461 20.1018 9.28552 20.1011C7.48505 20.1011 6.02583 18.633 6.02583 16.8199C6.02583 15.0067 7.48505 13.5386 9.28552 13.5386C9.62634 13.5383 9.96506 13.5919 10.2891 13.6975L10.2938 9.76283C9.31007 9.63576 8.31067 9.71394 7.35866 9.99244C6.40666 10.2709 5.5227 10.7437 4.76255 11.381C4.09649 11.9597 3.53653 12.6502 3.10786 13.4214C2.94474 13.7027 2.32927 14.8328 2.25474 16.6671C2.20786 17.7081 2.52052 18.7867 2.66958 19.2325V19.2419C2.76333 19.5044 3.12661 20.4002 3.71865 21.1553C4.19604 21.7611 4.76006 22.2932 5.39255 22.7346V22.7252L5.40193 22.7346C7.27271 24.0058 9.34693 23.9224 9.34693 23.9224C9.70599 23.9078 10.9088 23.9224 12.2747 23.275C13.7897 22.5574 14.6522 21.4881 14.6522 21.4881C15.2032 20.8493 15.6414 20.1212 15.9479 19.3352C16.2976 18.416 16.4143 17.3135 16.4143 16.8728V8.94533C16.4611 8.97346 17.0855 9.38643 17.0855 9.38643C17.0855 9.38643 17.9851 9.96299 19.3885 10.3385C20.3954 10.6056 21.7519 10.6619 21.7519 10.6619V6.82564C21.2766 6.87721 20.3115 6.72721 19.3233 6.23455Z" fill="white"/>
</svg>
