<svg width="39" height="40" viewBox="0 0 39 40" fill="none" xmlns="http://www.w3.org/2000/svg">
<path d="M15.9661 32.7895L27.3005 19.1801H19.988L21.4505 7.56138L11.1724 22.4301H17.4286L15.9661 32.7895ZM14.6255 24.8676H8.8161C8.33207 24.8676 7.97408 24.651 7.74214 24.2176C7.5102 23.7843 7.54319 23.3645 7.8411 22.9583L21.5724 3.13326C21.789 2.83534 22.0599 2.63222 22.3849 2.52388C22.7099 2.41555 23.0349 2.42909 23.3599 2.56451C23.6849 2.69992 23.9421 2.91889 24.1317 3.22141C24.3213 3.52393 24.389 3.84663 24.3349 4.18951L22.7505 16.7426H29.9005C30.4249 16.7426 30.7929 16.9728 31.0047 17.4333C31.2165 17.8937 31.1599 18.327 30.8349 18.7333L15.763 36.8114C15.5343 37.0796 15.2537 37.255 14.9212 37.3376C14.5886 37.4201 14.2734 37.3903 13.9755 37.2481C13.6776 37.1059 13.4406 36.8876 13.2645 36.593C13.0885 36.2985 13.0276 35.9786 13.0817 35.6333L14.6255 24.8676Z" fill="#DE4F3F"/>
</svg>
