<svg width="28" height="29" viewBox="0 0 28 29" fill="none" xmlns="http://www.w3.org/2000/svg">
<g clip-path="url(#clip0_4035_12019)">
<rect x="3.20703" y="7.99951" width="21.5833" height="16.9167" rx="3.79167" stroke="#DE4F3F" stroke-width="1.75"/>
<path d="M20.5072 15.5121C20.6062 15.6111 20.6898 15.7193 20.7578 15.8369C20.8537 15.9885 20.9249 16.1586 20.9651 16.3288C21.1105 16.9011 20.9589 17.5353 20.5072 17.9869C20.1886 18.3056 19.7802 18.4726 19.3657 18.4912C19.1924 18.5036 19.0161 18.4881 18.8491 18.4448C18.549 18.3737 18.2644 18.219 18.0324 17.9869C17.6983 17.6528 17.525 17.2136 17.5188 16.7743C17.5126 16.3164 17.6859 15.8586 18.0324 15.5121C18.3974 15.147 18.8862 14.9738 19.3626 15.0047C19.7802 15.0264 20.1917 15.1965 20.5072 15.5121Z" stroke="#DE4F3F" stroke-width="1.75" stroke-miterlimit="10" stroke-linecap="round" stroke-linejoin="round"/>
<path d="M4.81055 8.58301L16.9517 4.43726C19.7941 3.46667 22.748 5.57941 22.748 8.58301V8.58301" stroke="#DE4F3F" stroke-width="1.75"/>
<path d="M11.6654 21.4167C11.6654 21.79 11.6187 22.1517 11.5254 22.5017C11.4204 22.9683 11.2337 23.4233 10.9887 23.82C10.1837 25.1733 8.70203 26.0833 6.9987 26.0833C5.79703 26.0833 4.71203 25.6283 3.89536 24.8816C3.54536 24.5783 3.24202 24.2167 3.00868 23.82C2.57702 23.12 2.33203 22.2917 2.33203 21.4167C2.33203 20.1567 2.8337 19.0017 3.65037 18.1617C4.50204 17.2867 5.69203 16.75 6.9987 16.75C8.37536 16.75 9.6237 17.345 10.4637 18.3017C11.2104 19.13 11.6654 20.2267 11.6654 21.4167Z" fill="white" stroke="#DE4F3F" stroke-width="1.75" stroke-miterlimit="10" stroke-linecap="round" stroke-linejoin="round"/>
<path d="M5.24805 21.4167L6.41471 22.5833L8.74805 20.25" stroke="#DE4F3F" stroke-width="1.75" stroke-linecap="round" stroke-linejoin="round"/>
</g>
<defs>
<clipPath id="clip0_4035_12019">
<rect width="28" height="28" fill="white" transform="translate(0 0.708008)"/>
</clipPath>
</defs>
</svg>
