<svg width="24" height="25" viewBox="0 0 24 25" fill="none" xmlns="http://www.w3.org/2000/svg">
<path d="M23.8447 7.64689C23.8447 5.53752 22.2932 3.84064 20.376 3.84064C17.7791 3.71924 15.1307 3.67236 12.4241 3.67236H11.5804C8.88036 3.67236 6.22724 3.71924 3.63036 3.84111C1.71786 3.84111 0.166301 5.54736 0.166301 7.65674C0.0491132 9.32502 -0.000574324 10.9938 0.00223818 12.6625C-0.00244932 14.3313 0.0506757 16.0016 0.161613 17.6735C0.161613 19.7828 1.71318 21.4938 3.62568 21.4938C6.3538 21.6203 9.15224 21.6766 11.9976 21.6719C14.8476 21.6813 17.6382 21.6219 20.3694 21.4938C22.2866 21.4938 23.8382 19.7828 23.8382 17.6735C23.9507 16 24.0022 14.3313 23.9976 12.6578C24.0082 10.9891 23.9572 9.31877 23.8447 7.64689ZM9.70536 17.261V8.05002L16.5022 12.6531L9.70536 17.261Z" fill="white"/>
</svg>
