<svg width="30" height="30" viewBox="0 0 30 30" fill="none" xmlns="http://www.w3.org/2000/svg">
<path fill-rule="evenodd" clip-rule="evenodd" d="M2.25 0C1.00736 0 0 1.00736 0 2.25V23.25C0 26.9779 3.02208 30 6.75 30H26.25C27.9069 30 29.25 28.6569 29.25 27V24H15.75C10.7794 24 6.75 19.9706 6.75 15C6.75 10.0294 10.7794 6 15.75 6H29.1C28.4051 2.57664 25.3784 0 21.75 0H2.25Z" fill="#DE4F3F"/>
<path d="M20.25 15C20.25 17.4853 18.2353 19.5 15.75 19.5C13.2647 19.5 11.25 17.4853 11.25 15C11.25 12.5147 13.2647 10.5 15.75 10.5C18.2353 10.5 20.25 12.5147 20.25 15ZM13.0223 15C13.0223 16.5065 14.2435 17.7277 15.75 17.7277C17.2565 17.7277 18.4777 16.5065 18.4777 15C18.4777 13.4935 17.2565 12.2723 15.75 12.2723C14.2435 12.2723 13.0223 13.4935 13.0223 15Z" fill="#DE4F3F"/>
</svg>
